<?xml version="1.0" encoding="utf-8"?>
<!-- Svg Vector Icons : http://www.onlinewebfonts.com/icon -->
<!DOCTYPE svg PUBLIC "-//W3C//DTD SVG 1.1//EN" "http://www.w3.org/Graphics/SVG/1.1/DTD/svg11.dtd">
<svg version="1.1" xmlns="http://www.w3.org/2000/svg" xmlns:xlink="http://www.w3.org/1999/xlink" x="0px" y="0px" viewBox="0 0 1000 1000" enable-background="new 0 0 1000 1000" xml:space="preserve">
<metadata> Svg Vector Icons : http://www.onlinewebfonts.com/icon </metadata>
<g><path d="M140.8,345.4h456.7v10.5c0,113.6,0,227.3,0,340.9c0,38.4-20.5,58.7-59.1,58.8c-9.6,0-19.2,0-28.1,0c0,40.7,0.4,80.3-0.2,119.8c-0.4,24.5-21.6,44.9-45.9,45.8c-26.1,1-49.9-17.1-50.8-42.2c-1.5-40.5-0.4-81.1-0.4-122.5h-87.6c0,16.1,0,32.2,0,48.3c-0.1,23.7,0.5,47.5-0.4,71.2c-0.8,23.2-19.1,42.2-41.6,45c-23.9,3-46.2-10.8-53.3-33.4c-1.6-5-2.5-10.4-2.5-15.6c-0.2-33.7-0.2-67.4-0.1-101.2c0-4.6,0.8-9.3,1.3-15.2c-11.4,0-22.5,0.1-33.6,0c-33-0.2-54.4-21.6-54.4-54.7c-0.1-115.5,0-231,0-346.6L140.8,345.4L140.8,345.4z M597.7,311.7H140.4c4.2-79.1,49.2-128.2,115.9-163.1c-6.8-10.3-13.4-20.3-20-30.4c-4.8-7.3-9.7-14.5-14.5-21.8c-3.4-5.1-8.8-10.9-1.3-16.1c8.1-5.5,11.4,2.2,15,7.5c8.6,12.7,17,25.4,25.5,38.1c10.4,15.7,10.4,15.7,28.4,10.4c57.1-16.6,113.9-15.7,170.2,3.7c2,0.7,4.1,1.3,6.7,2.1c11.7-17.5,23.3-34.8,34.8-52.2c1.4-2.1,2.7-4.2,4.2-6.2c3.3-4.7,7.4-7.2,12.6-3.3c4.7,3.5,3.9,7.9,0.9,12.4c-10.1,15-20.1,30.1-30.1,45.2c-2.2,3.4-4.4,6.8-7,10.7C548.2,183.2,593.6,232.4,597.7,311.7L597.7,311.7L597.7,311.7z M491.4,222.8c0.1-13.2-10.9-24.5-24.2-24.6c-13.4-0.1-24.4,10.7-24.5,24.2c-0.1,13.7,10.4,24.3,24,24.4C480.4,246.8,491.3,236.2,491.4,222.8L491.4,222.8z M295.4,222.2c-0.2-13.5-11.2-24.3-24.6-24c-13.3,0.2-24.3,11.6-24.1,24.8c0.2,13.4,11.2,24,24.8,23.8C285.2,246.6,295.6,235.9,295.4,222.2L295.4,222.2z M107.8,498.6c0,35.6,0.3,71.1-0.1,106.7c-0.3,21.8-15.6,40.2-36.5,45.5c-20.4,5.2-42.8-3.3-53.3-21.8c-4.3-7.6-7.3-17-7.4-25.5c-0.6-69.9-0.5-139.7-0.2-209.6c0.1-27.5,21.8-48.7,48.9-48.7c27.1,0,48.4,20.8,48.7,48.7C108.1,428.7,107.9,463.6,107.8,498.6C107.8,498.6,107.8,498.6,107.8,498.6L107.8,498.6L107.8,498.6z"/><path d="M806.9,179.5c22-2.2,38-9.8,49.3-17.9c6.1-4.4,12.6-9.4,17.6-15c4.8-7.5,8.3-13.5,11.8-19.6c3.2-5.5,5.6-12.9,8-22.5c1.7-7.1,3.1-14.3,3.1-22.7v-6.5c-21.3,1.9-38.2,9.9-49.5,17.9c-6.5,4.6-12.3,9.4-17.9,15c-4.1,5.8-8.2,12.1-11.8,19.6c-3.1,6.5-5.9,13.3-8,23c-1.6,7.5-2.7,14.3-2.7,21.8L806.9,179.5L806.9,179.5z M626.1,335.8c-0.2,6,0.2,13,0.7,19.8c2.8,33.6,11.5,69.1,30.2,103.2c15.4,28.1,28.2,48.1,41.6,59.4c13.7,11.6,26.6,17.4,38.7,17.4c25.6,0,54.8-23.7,78.8-23.7c22.7,0,45.7,23.7,69.6,23.7c12.8,0,24.7-4.6,36.2-13c12.4-9.2,22.1-20.5,31.7-33.8c3.9-5.5,7.3-11.3,11.4-18.8c6.6-12.3,14-29.7,23.7-51v-3.1c-35.3-13-60.6-49-60.6-88.9c0-18.6,4.2-35.1,13.3-49.8c9.6-15.5,21.7-26.3,36.2-34.3c-21.8-29.5-55.8-46.2-82.4-46.2c-30,0-72,21.3-84.6,21.3c-12.8,0-40.1-19.6-76.1-19.6c-23.4,0-55,9.5-78.8,35.5c-15.8,17.3-23.1,43.5-27.5,74.2C626.7,317.8,626.4,326.2,626.1,335.8L626.1,335.8z"/><path d="M624,733h150.3V587.1L624,604.6V733z M795.8,584.6V733H990V562L795.8,584.6z M624,882.8L774.3,900V754.4H624V882.8z M795.8,902.4L990,924.6V754.4H795.8V902.4z"/></g>
</svg>