<?xml version="1.0" encoding="UTF-8" standalone="no"?>
<svg
   xmlns:dc="http://purl.org/dc/elements/1.1/"
   xmlns:cc="http://creativecommons.org/ns#"
   xmlns:rdf="http://www.w3.org/1999/02/22-rdf-syntax-ns#"
   xmlns:svg="http://www.w3.org/2000/svg"
   xmlns="http://www.w3.org/2000/svg"
   id="svg7399"
   version="1.1"
   viewBox="0 0 1201.2207 1203.9224"
   height="1203.9224"
   width="1201.2207">
  <defs
     id="defs7393" />
  <metadata
     id="metadata7396">
    <rdf:RDF>
      <cc:Work
         rdf:about="">
        <dc:format>image/svg+xml</dc:format>
        <dc:type
           rdf:resource="http://purl.org/dc/dcmitype/StillImage" />
        <dc:title></dc:title>
      </cc:Work>
    </rdf:RDF>
  </metadata>
  <g
     transform="translate(365.23521,8.551777)"
     id="layer1">
    <path
       id="path8191"
       transform="translate(-365.23521,-8.551777)"
       d="M 361.22266 0 L 328.76367 0.33398438 C 293.04818 0.70172035 271.3525 2.6832642 259.30664 6.6757812 L 255.30664 8 L 255.04883 14 C 254.70244 22.087726 257.88041 28.095883 262.35547 27.814453 C 293.23916 25.872218 291.80664 25.544293 291.80664 34.570312 L 291.80664 39.257812 L 284.26562 40.378906 C 280.11818 40.995764 274.76855 41.5 272.37695 41.5 C 266.67019 41.5 263.24221 44.112128 264.1582 47.761719 C 265.15888 51.74874 267.06311 53.062557 274.73633 55.052734 C 280.59984 56.573533 281.80901 57.237034 281.82031 58.943359 C 281.82782 60.074838 282.0837 61.928927 282.38867 63.064453 C 282.8869 64.91957 282.27398 65.253375 276.3457 66.345703 C 272.71698 67.014321 268.1861 68.304621 266.27734 69.214844 L 262.80664 70.871094 L 262.80664 80.185547 C 262.80664 85.308681 263.05748 89.5 263.36523 89.5 C 263.67297 89.5 268.73547 88.421929 274.61523 87.105469 C 290.1447 83.628445 310.2503 80.30531 313.49805 80.677734 C 316.10646 80.976844 316.30664 81.316246 316.30664 85.435547 C 316.30664 89.545335 316.08576 89.923117 313.30664 90.560547 C 311.65664 90.939007 305.80664 92.248883 300.30664 93.470703 C 281.24726 97.704753 282.95157 96.809016 282.60742 102.77539 L 282.30664 108 L 274.80664 108.62109 C 270.68164 108.9623 265.61914 109.95209 263.55664 110.82031 C 259.93466 112.34502 259.80664 112.5692 259.80664 117.39258 C 259.80664 120.66598 260.52856 123.60912 261.90234 125.9375 C 264.14593 129.74011 263.86128 129.70171 272.80664 127.4082 C 278.92459 125.8396 282.70259 126.3061 285.35156 128.95508 C 288.5718 132.17531 288.68918 136.49453 285.55664 136.51562 C 281.70517 136.54162 274.63199 139.05951 273.69141 140.74023 C 273.19784 141.6222 272.50549 145.7617 272.15234 149.93945 C 271.54819 157.08649 271.35619 157.56969 268.9082 158.11133 C 264.42345 159.10363 259.8741 161.50786 258.84766 163.42578 C 256.36684 168.06123 263.79304 182.91204 266.99219 179.71289 C 269.02949 177.67559 274.57596 178.19419 275.30469 180.49023 C 276.02869 182.77134 275.24067 184.5 273.47852 184.5 C 272.0171 184.5 262.66871 192.07216 261.41016 194.27539 C 259.96183 196.81085 263.8533 199.06388 272.26562 200.55859 C 277.95812 201.57005 279.73202 202.253 279.33594 203.28516 C 279.04518 204.04288 278.80664 208.44171 278.80664 213.06055 L 278.80664 221.45898 L 275.05664 223.41602 C 272.99414 224.49212 265.93372 229.66691 259.36719 234.91602 C 252.80067 240.16512 244.3069 246.607 240.49219 249.23047 C 236.67749 251.85394 231.21704 256.025 228.35742 258.5 C 225.4978 260.975 219.64382 265.475 215.34766 268.5 C 206.77792 274.53409 206.23845 274.94821 196.80664 282.75 C 193.23164 285.70717 188.95664 288.97851 187.30664 290.01953 C 185.65664 291.06056 182.90495 293.05786 181.19141 294.45703 C 179.47786 295.8562 175.95584 298.575 173.36523 300.5 C 170.77461 302.425 164.30131 307.7626 158.98047 312.36133 C 153.65963 316.96007 148.18164 321.43604 146.80664 322.30859 C 145.43164 323.18113 141.60664 326.21051 138.30664 329.03906 C 135.00664 331.86761 128.93164 336.77614 124.80664 339.94727 C 98.677276 360.03446 66.773746 390.50678 58.103516 403.6582 C 56.891736 405.49629 54.191736 410.15 52.103516 414 L 48.306641 421 L 48.160156 435.80664 C 47.984476 453.61945 48.134784 453.36429 36.021484 456.46875 C 19.743834 460.64048 20.371566 459.83616 24.759766 470.88281 C 29.769726 483.49463 29.763551 486.74285 24.707031 495 C 16.650751 508.15567 6.7328294 532.6061 3.8183594 546.5 C 3.1838194 549.525 2.2131263 553.35 1.6601562 555 C -0.3206735 560.91061 -0.6032665 583.39678 1.2148438 590.4707 C 3.5561137 599.58006 7.5754478 607.01995 12.722656 611.77148 C 15.605616 614.43283 17.411288 617.08903 17.923828 619.42383 C 18.355628 621.39083 19.146491 625.025 19.681641 627.5 C 23.708801 646.12511 38.370078 672.94533 49.986328 682.93945 C 54.299298 686.65015 67.892286 693.79339 73.009766 695.03711 C 75.289476 695.59116 75.790833 696.34308 76.210938 699.8457 C 77.233427 708.37086 78.8075 727.25338 78.8125 731.05859 C 78.82352 739.80652 86.402744 742.92535 110.74023 744.19727 C 117.10218 744.52975 122.596 745.24417 122.94922 745.78516 C 123.30243 746.32615 123.86963 754.0213 124.20898 762.88477 C 124.54833 771.74824 125.2785 787.1 125.83203 797 C 126.7779 813.91684 127.3416 821.89336 129.81055 853.25 C 130.36269 860.2625 131.71235 882.875 132.81055 903.5 C 133.90875 924.125 135.27799 946.175 135.85352 952.5 C 136.42906 958.825 137.32458 973.45 137.8418 985 C 138.35903 996.55 139.22357 1011.175 139.76367 1017.5 C 140.30377 1023.825 141.23662 1037.325 141.83594 1047.5 C 142.43525 1057.675 143.32828 1069.375 143.82227 1073.5 C 144.31627 1077.625 145.19365 1087.525 145.77148 1095.5 C 146.34931 1103.475 147.26904 1114.275 147.81445 1119.5 C 149.06162 1131.4477 150.38949 1146.1655 151.7832 1163.5 C 153.79183 1188.4828 155.12002 1199.5452 156.30664 1201.168 C 157.30118 1202.528 159.59246 1202.7583 170.89648 1202.6289 C 190.39251 1202.4056 202.83292 1199.6165 201.36719 1195.7969 C 200.42779 1193.3489 197.81059 1166.5211 197.80859 1159.3164 C 197.80696 1153.8119 198.11515 1152.545 199.55664 1152.125 C 204.64089 1150.6435 273.56466 1151.5248 302.80664 1153.4453 C 310.78164 1153.969 328.33164 1154.6613 341.80664 1154.9824 C 355.28164 1155.3035 371.70664 1156.0029 378.30664 1156.5371 C 384.90664 1157.0712 395.70664 1157.7528 402.30664 1158.0527 C 408.90664 1158.3527 423.30664 1159.031 434.30664 1159.5586 C 445.30664 1160.0862 461.50664 1160.7797 470.30664 1161.0996 C 479.10664 1161.4195 486.70227 1162.0583 487.18555 1162.5195 C 487.66883 1162.9807 488.16573 1166.2652 488.28906 1169.8184 C 488.56701 1177.8264 490.83158 1181.3674 498.41016 1185.6445 C 503.78509 1188.6779 503.80664 1188.7108 503.80664 1193.5703 C 503.80664 1199.6793 506.15872 1201.1618 518.74805 1202.9941 C 523.45573 1203.6793 527.90829 1204.0734 528.64258 1203.8691 C 529.37688 1203.6649 532.52688 1203.2089 535.64258 1202.8574 C 541.8866 1202.1529 547.94594 1199.5539 551.84766 1195.9043 L 554.38672 1193.5273 L 614.34766 1193.4746 C 647.32553 1193.4458 703.74987 1192.9059 739.73633 1192.2734 L 805.16602 1191.123 L 808.375 1188.3047 C 813.86273 1183.4864 815.12514 1179.5324 814.33398 1169.623 C 813.67578 1161.3789 813.37498 1160.5396 807.48242 1150.5 C 793.05162 1125.9131 756.22044 1081.9779 745.30664 1076.332 C 743.65664 1075.4785 739.67343 1073.3678 736.45508 1071.6406 C 732.76043 1069.6578 729.16656 1068.5 726.70508 1068.5 C 722.86794 1068.5 722.80678 1068.4411 722.80078 1064.75 C 722.79759 1062.6875 722.35492 1058.3102 721.81641 1055.0215 C 720.62137 1047.7235 721.06154 1047.1839 729.5332 1045.584 C 742.62492 1043.1116 748.05035 1039.1273 749.86914 1030.6465 C 751.426 1023.3872 750.9331 1021.1636 744.02539 1004.3105 C 740.71409 996.2321 737.26168 986.66023 736.35352 983.03906 C 735.44535 979.41784 734.02019 974.55158 733.1875 972.22656 C 729.74909 962.62591 729.4691 935.06162 732.78906 933.00977 C 733.21507 932.74648 748.15408 932.22973 765.98633 931.86133 L 798.4082 931.19141 L 799.65625 941.0957 C 804.53673 979.84677 811.24225 1002.4715 821.34766 1014.2773 C 824.96301 1018.501 832.19011 1022.5 836.20703 1022.5 C 839.15952 1022.5 843.80664 1017.3216 843.80664 1014.0312 C 843.80664 1011.7889 846.16138 1009.9832 847.78125 1010.9844 C 848.21816 1011.2544 848.86744 1013.4248 849.22461 1015.8066 C 850.25656 1022.6881 855.01497 1031.5513 860.26758 1036.375 C 864.97402 1040.6972 865.0981 1040.7416 870.49414 1040.1074 C 876.05056 1039.4544 883.0508 1036.5329 884.4375 1034.2891 C 885.92699 1031.8791 886.65324 1022.199 885.75781 1016.6973 C 885.25878 1013.631 885.04413 1010.9285 885.28125 1010.6914 C 885.7334 1010.2393 888.73143 1012.0264 895.77344 1016.9434 C 902.0933 1021.3562 910.8088 1021.8313 914.82617 1017.9824 C 922.57565 1010.5579 922.95023 998.23915 915.70117 989.21875 C 909.90524 982.00643 910.54276 981.95396 965.93359 985.16406 L 975.5625 985.72266 L 976.23047 998.36133 C 978.47377 1040.8507 978.94206 1053.6129 979.47266 1086.5254 L 980.0625 1123.0508 L 975.68359 1126.6133 C 966.90681 1133.7575 953.8012 1142.0756 942.31445 1147.793 C 940.11871 1148.8859 936.51871 1150.944 934.31445 1152.3652 C 929.81733 1155.2647 930.05741 1155.1295 916.30664 1162.5059 C 905.67836 1168.2072 899.01885 1172.9356 894.58398 1177.9316 C 888.80138 1184.4458 891.45856 1185.9103 912.28906 1187.6797 C 925.17398 1188.7741 936.05714 1188.3115 965.30664 1185.4297 C 970.80664 1184.8879 979.13164 1184.2002 983.80664 1183.9004 C 988.48164 1183.6006 993.20664 1182.9759 994.30664 1182.5117 C 1000.9302 1179.7165 1020.6693 1178.7176 1032.8066 1180.5645 C 1050.1396 1183.202 1055.0708 1183.615 1069.9648 1183.666 C 1083.7314 1183.7135 1087.6266 1183.377 1094.3438 1181.5645 C 1104.871 1178.7238 1105.0961 1178.5569 1104.2793 1174.2031 C 1103.5386 1170.2551 1101.6228 1169.2564 1075.8066 1159.334 C 1039.248 1145.2828 1032.189 1141.7229 1024.3086 1133.3633 L 1018.3105 1127 L 1017.625 1116.5 C 1017.2482 1110.725 1016.4339 1101.5 1015.8145 1096 C 1015.1951 1090.5 1014.3118 1079.475 1013.8516 1071.5 C 1012.579 1049.4464 1008.9064 1002.936 1007.7773 994.56641 C 1007.2257 990.47751 1007.1199 986.83137 1007.541 986.46484 C 1007.9621 986.09831 1018.8816 985.00287 1031.8066 984.03125 C 1068.7106 981.25704 1074.9999 980.67004 1079.8066 979.54883 C 1082.2816 978.9715 1087.9066 978.08796 1092.3066 977.58594 C 1096.7066 977.08392 1107.1392 975.0105 1115.4902 972.97852 L 1130.6738 969.28516 L 1136.2305 963.77344 C 1139.2862 960.742 1143.0516 955.95272 1144.5977 953.13086 C 1146.1439 950.30899 1147.9068 947.1 1148.5156 946 C 1150.9489 941.60391 1152.8066 932.88243 1152.8066 925.85938 C 1152.8066 905.02616 1138.7278 889.10512 1119.5684 888.27148 L 1114.6172 888.05664 L 1115.1328 884.875 C 1115.4167 883.12548 1116.7738 879.96377 1118.1484 877.84766 C 1119.648 875.53932 1121.4333 870.19966 1122.6113 864.5 C 1123.6911 859.275 1125.2766 852.075 1126.1348 848.5 C 1127.5849 842.45886 1128.7146 836.2418 1130.8574 822.5 C 1133.5739 805.07914 1135.1446 796.44778 1136.4082 792 C 1137.1894 789.25 1138.4819 783.175 1139.2812 778.5 C 1142.4686 759.86347 1145.8721 751.5 1150.2676 751.5 C 1152.7224 751.5 1159.7349 745.48383 1165.0625 738.80664 C 1170.3126 732.22665 1180.8066 711.01044 1180.8066 706.97656 C 1180.8066 706.02582 1182.3198 701.36625 1184.1699 696.62305 C 1187.8223 687.25944 1190.1618 678.66124 1191.8184 668.5 C 1192.4013 664.925 1193.9389 656.15 1195.2363 649 C 1198.5303 630.84793 1199.8066 622.08934 1199.8066 617.63086 C 1199.8066 615.52314 1200.2521 612.49302 1200.7969 610.89844 C 1201.4717 608.92352 1201.3427 601.30497 1200.3926 587 C 1197.4213 542.26361 1188.9197 522.94497 1166.8066 510.68359 C 1153.1624 503.11808 1133.9612 498.55296 1123.4043 500.36328 C 1105.8552 503.3726 1093.9941 513.36992 1081.5703 535.62305 C 1077.253 543.35604 1069.8066 566.46565 1069.8066 572.13281 C 1069.8066 573.52684 1068.9387 578.11734 1067.8789 582.33398 C 1063.9706 597.8826 1062.5341 619.27034 1062.9805 655.26367 C 1063.2086 673.65954 1063.008 688.40111 1062.5312 688.24219 C 1062.0575 688.08414 1060.4387 685.03899 1058.9336 681.47656 C 1055.2115 672.66732 1048.2368 660.74735 1044.3203 656.5 C 1042.5452 654.575 1039.5819 650.75 1037.7363 648 C 1034.0557 642.51594 1032.8256 641.0726 1018.6152 625.57227 C 993.19588 597.8453 958.18725 573.04146 910.49414 548.9707 C 897.2226 542.27254 896.34085 541.63056 887.99414 532.57617 C 858.95771 501.07792 832.04691 484.18794 808.57227 482.72656 C 799.64257 482.17065 799.28029 481.87539 798.38281 474.44531 C 797.73201 469.05741 797.82648 468.75638 801.50977 464.44531 C 810.50202 453.92041 816.24236 442.92425 820.79883 427.5 C 822.0174 423.375 823.3757 418.875 823.81641 417.5 C 824.25711 416.125 825.61687 410.725 826.83789 405.5 C 828.05891 400.275 829.21154 395.4375 829.40039 394.75 C 829.89787 392.93898 833.10669 393.22267 843.74805 396.01758 C 851.09024 397.94598 853.36589 398.21899 853.98242 397.24805 C 855.47489 394.89763 854.8467 384.76063 852.93164 380.29297 C 850.0816 373.6441 849.35772 369.5 851.04492 369.5 C 851.81322 369.5 857.52287 371.776 863.73438 374.55664 C 877.02682 380.50718 879.86861 380.66157 881.00781 375.5 C 882.97453 366.58896 878.07872 352.8158 864.83594 330 C 859.35012 320.54856 846.75779 302.62485 841.12305 296.24805 C 839.29916 294.18396 837.80664 292.08349 837.80664 291.58203 C 837.80664 291.08058 833.08164 286.03114 827.30664 280.35938 C 821.53164 274.68759 816.80664 269.47361 816.80664 268.77344 C 816.80664 267.94329 818.28521 267.49814 821.05664 267.49414 C 826.32595 267.48723 832.26888 265.89323 834.18945 263.97266 C 837.5036 260.65851 830.55242 251.44278 819.11133 243.98242 C 815.91891 241.90075 810.15664 238.0826 806.30664 235.49805 C 802.45664 232.91349 795.71036 228.89444 791.31445 226.56641 C 783.96739 222.6755 781.86327 221.07813 781.82227 219.35938 C 781.78856 217.94714 789.75113 215.71002 797.27344 215.01953 C 807.89808 214.04425 824.80664 208.27168 824.80664 205.61914 C 824.80664 202.90656 819.9206 195.83495 815.61133 192.31055 C 810.074 187.78177 796.38357 181.20375 786.80664 178.4707 C 773.80555 174.76048 771.55777 174.29748 760.83789 173.13477 L 750.36719 172 L 745.96484 164 C 735.8398 145.60019 720.18974 128.27528 708.49023 122.51562 C 696.93772 116.82838 693.48089 119.96954 697.19531 132.7793 C 698.02777 135.65017 699.36358 140.475 700.16406 143.5 C 700.96454 146.525 701.93522 149.7875 702.32031 150.75 C 703.52244 153.75457 699.52997 152.83676 690.35938 148 C 685.66673 145.525 681.22724 143.5 680.49219 143.5 C 677.92769 143.5 674.45866 148.365 674.38086 152.07227 C 674.31122 155.38797 674.11769 155.60612 671.6582 155.11719 C 670.20129 154.82757 665.92629 152.61929 662.1582 150.20898 C 654.56551 145.35222 655.09271 145.59386 641.80664 140.83594 C 622.95714 134.08568 595.14424 131.00408 581.97656 134.20703 C 574.71157 135.97419 574.65988 136.24214 579.36719 147.89844 C 580.04505 149.57696 579.79768 149.7185 577.2207 149.13086 C 564.73627 146.28396 528.40879 148.92655 516.72656 153.53125 C 513.9534 154.62433 509.62709 155.97918 507.11133 156.54297 C 502.0713 157.67247 486.74326 163.97206 482.80664 166.53125 C 481.43164 167.42514 477.29037 169.81945 473.60352 171.85156 C 463.81415 177.24726 454.80664 186.10818 454.80664 190.34375 C 454.80664 193.0173 455.13488 193.53335 456.55664 193.09375 C 457.51914 192.79615 462.13164 191.87728 466.80664 191.05078 C 471.48164 190.22429 478.08629 189.02897 481.48438 188.39648 C 484.88245 187.76399 488.7778 187.52708 490.14062 187.86914 C 492.57551 188.48026 492.52499 188.59293 487.22852 194.32422 C 484.26394 197.53218 480.81864 201.54986 479.57227 203.25195 C 478.32589 204.95405 474.99377 209.40209 472.16797 213.13867 C 469.34218 216.87525 464.20166 225.41832 460.74414 232.12109 C 454.77375 243.69536 454.43679 244.72984 454.01758 252.7168 C 453.53158 261.97636 455.0599 266.61732 460.16602 271.38281 L 462.7207 273.76758 L 468.4668 271.43555 C 479.38421 267.00449 488.4325 261.12298 502.98242 249 C 518.09818 236.40555 528.5484 228.94716 535.19922 226.00586 L 541.05664 223.41406 L 540.36523 226.20703 C 538.32847 234.43829 538.51211 241.55645 540.82422 244.01758 C 543.80357 247.18896 543.26551 250.26167 537.35742 263.83008 C 528.56039 284.03314 524.06237 302.2084 525.25391 312.74023 C 526.00615 319.38908 532.62864 334.6387 538.02734 342.15625 C 541.06804 346.39035 541.07779 346.44801 539.87305 352.70703 C 536.3051 371.24369 531.72686 380.41764 516.30664 399.93164 C 500.83351 419.5126 496.80664 424.81271 496.80664 425.59961 C 496.80664 426.06665 495.41695 427.16675 493.71875 428.04492 C 491.74644 429.06484 489.91111 431.27138 488.63672 434.15234 C 485.66483 440.87081 486.77738 446.05177 494.45312 461.21875 C 504.54098 481.15184 509.73599 483.76743 538.80664 483.55273 L 553.30664 483.44531 L 558.69531 493.03906 C 566.14988 506.30824 570.34934 515.16654 571.80273 520.69531 C 572.93741 525.01172 572.86444 525.61107 570.90234 528.10547 C 565.34855 535.16597 563.82421 547.43942 567.52539 555.29492 C 570.47638 561.55816 582.81237 567.5 592.86523 567.5 C 596.18676 567.5 596.66465 567.86974 598.36328 571.75 C 602.97862 582.29307 614.59507 598.88408 622.39648 606.07422 L 625.73047 609.14648 L 623.23438 612.82031 C 620.36194 617.04745 613.83786 620.75951 610.07422 620.30859 C 608.06363 620.0677 607.19983 619.11742 606.1543 616 C 601.31591 601.57352 599.6031 599.67066 593.04883 601.43555 C 590.89068 602.01668 588.26469 603.46094 587.21484 604.64648 C 585.28657 606.82401 576.99122 612.5 575.73633 612.5 C 575.36276 612.5 574.80551 611.24236 574.49805 609.70508 C 574.19059 608.1678 572.40417 604.6803 570.5293 601.95508 C 567.19981 597.11549 566.9914 596.9937 561.54492 596.70312 C 556.32863 596.42485 555.74236 596.63069 552.46289 599.91016 C 550.53469 601.83836 548.80962 604.44856 548.63086 605.70898 C 548.42206 607.18124 547.51647 608.11265 546.09766 608.31445 C 544.25732 608.5762 543.34733 607.51447 540.63477 601.95117 C 533.12496 586.54898 524.32593 587.16527 514.98242 603.74805 C 513.51073 606.35999 511.8204 608.49749 511.22656 608.49805 C 510.63273 608.49861 509.3958 605.0125 508.47656 600.75 C 505.69624 587.85777 501.27007 582.87665 492.86133 583.17578 C 488.71223 583.32338 487.87528 583.81373 483.4668 588.66992 C 480.8051 591.60193 477.7189 596.05877 476.60742 598.57422 L 474.58594 603.14648 L 466.95312 604.42969 C 458.04481 605.92655 450.57394 609.4008 448.07422 613.20898 C 446.66031 615.36299 446.2065 618.81603 445.80664 630.45117 L 445.30664 645 L 431.80664 645.65039 C 420.35861 646.20134 417.00946 646.75896 409.76953 649.32617 C 405.07383 650.99123 396.52383 653.53419 390.76953 654.97656 C 385.01523 656.41894 378.55563 658.06293 376.41602 658.63086 C 370.84083 660.1107 370.50605 659.18794 369.29688 639 C 367.52947 609.49343 364.61978 604.21764 347.98828 600.37109 C 343.76339 599.39396 337.83164 597.68832 334.80664 596.58008 C 328.5444 594.28585 323.0737 593.96634 319.32617 595.67383 C 315.49881 597.4177 314.68576 595.8566 314.48438 586.37891 L 314.30664 578 L 335.33203 577.73047 L 356.35938 577.46094 L 357.73047 582.23047 C 363.44165 602.09806 383.72194 611.46148 411.30664 606.96484 C 428.46668 604.16754 432.36345 603.33747 444 600.00586 C 450.43186 598.16439 458.20157 596.34377 461.26562 595.96094 C 467.937 595.12741 470.25073 592.57349 472.37109 583.70312 C 474.773 573.655 473.54258 549.24834 469.86523 534 C 468.75923 529.41392 466.70859 521.11244 463.31641 507.5 C 460.9302 497.92441 458.88143 487.30579 456.75977 473.5 C 456.12584 469.375 454.49152 460.15 453.12695 453 C 451.76237 445.85 449.81914 435.275 448.80859 429.5 C 447.79805 423.725 446.47144 416.3 445.86133 413 C 445.25122 409.7 444.10569 402.725 443.31445 397.5 C 442.5232 392.275 441.18581 383.725 440.34375 378.5 C 439.50169 373.275 438.30548 365.85 437.68555 362 C 437.06562 358.15 435.8931 352.3 435.08008 349 C 434.26705 345.7 432.99393 339.175 432.25 334.5 C 430.755 325.10514 429.88235 320.12609 427.51758 307.5 C 426.64199 302.825 424.525 291.35 422.8125 282 C 421.09999 272.65 418.81977 260.5 417.74609 255 C 416.6724 249.5 415.12056 241.175 414.29688 236.5 C 413.47314 231.825 412.31647 225.3 411.72656 222 C 408.1374 201.92186 400.96958 188.78653 390.70508 183.47461 C 387.19413 181.65767 387.08683 181.42711 386.41797 174.30469 C 385.74805 167.17094 385.79606 166.94826 388.48633 164.78906 C 391.18513 162.62301 391.21598 162.47965 389.96875 157.81641 C 389.26847 155.19814 387.77584 151.56981 386.65234 149.75195 C 384.50666 146.28015 384.15471 146.22628 375.16992 148.04688 C 373.06864 148.47267 371.18842 145.30923 372.38867 143.36719 C 372.87406 142.58181 379.53496 140.42747 387.55664 138.46289 L 391.80664 137.42188 L 391.80664 132.0332 L 391.80664 126.64453 L 397.17773 124.10352 L 402.54883 121.5625 L 401.70898 117.28125 C 401.24615 114.92643 400.57076 111.3125 400.20898 109.25 L 399.55078 105.5 L 393.42969 105.50586 C 387.4473 105.51152 380.1476 106.516 372.50195 108.38477 L 368.69727 109.31445 L 369.00195 105.71484 C 369.27232 102.52246 369.70225 102.0188 372.80664 101.25977 C 374.73164 100.7891 378.66914 99.737838 381.55664 98.923828 L 386.80664 97.443359 L 386.80664 92.947266 C 386.80664 87.481856 387.66333 87.032186 401.07422 85.443359 C 410.96835 84.271173 420.80664 81.847987 420.80664 80.583984 C 420.80664 80.158281 418.99795 77.010435 416.78711 73.589844 L 412.76758 67.371094 L 388.28516 67.685547 C 364.19297 67.994774 360.7229 67.568435 365.05664 64.828125 C 367.03896 63.574661 382.8823 60.536068 387.53125 60.517578 C 391.14325 60.503212 391.94724 60.101381 393.08203 57.75 C 395.87464 51.96344 391.94883 47.045756 382.50586 44.503906 C 379.03797 43.570423 377.85749 42.811574 378.25586 41.773438 C 378.55923 40.982875 378.80664 38.63338 378.80664 36.550781 C 378.80664 32.425373 378.33281 32.664696 389.80664 30.978516 C 391.73164 30.695621 396.34414 29.980658 400.05664 29.390625 L 406.80664 28.318359 L 406.80664 22.503906 L 406.80664 16.6875 L 402.12891 15.09375 C 398.6065 13.893543 393.45283 13.5 381.27148 13.5 L 365.09375 13.5 L 363.1582 6.75 L 361.22266 0 z M 32.8125 503.5 C 34.72593 503.5 33.178423 517.85115 30.751953 522.60742 C 29.682263 524.7042 28.806641 526.90933 28.806641 527.50781 C 28.806641 528.10629 27.868716 530.48789 26.722656 532.79883 C 25.576596 535.10976 24.248141 539.7 23.769531 543 C 21.518221 558.52298 19.747203 568.525 18.820312 570.96289 C 18.262403 572.43032 17.806641 575.03728 17.806641 576.75586 C 17.806641 578.47445 17.267472 582.49385 16.607422 585.68945 C 15.947382 588.88506 15.133481 591.5 14.800781 591.5 C 13.886461 591.5 11.899981 578.20795 11.212891 567.5 C 10.577751 557.60154 12.603457 538.61679 14.716797 534.66797 C 15.315977 533.54839 15.806641 531.92576 15.806641 531.0625 C 15.806641 525.33167 29.27652 503.5 32.8125 503.5 z M 71.345703 525.50977 C 71.916793 525.50452 73.125423 529.7955 74.033203 535.04492 C 77.050043 552.49034 79.973631 555.30624 96.306641 556.50391 C 101.80664 556.90717 106.75664 556.91976 107.30664 556.5332 C 111.4026 553.6544 129.50255 550.15374 140.78516 550.05664 L 147.26367 550 L 147.98633 553.5 C 148.38365 555.425 149.38652 560.375 150.21484 564.5 C 153.09227 578.82946 156.78215 586.06939 162.85156 589.28906 C 165.27351 590.57385 187.03627 590.37463 206.55664 588.88867 L 213.80664 588.33594 L 213.80664 591.76367 C 213.80664 599.30345 208.90444 600.73377 182.30664 600.96289 C 151.94454 601.22442 152.34761 600.92475 152.70312 623.06445 C 152.96843 639.58723 152.78762 640.1275 148.10156 636.85547 C 146.8887 636.0086 141.7137 634.18133 136.60156 632.79492 C 128.01531 630.46633 125.24841 630.24071 100.30664 629.82812 C 76.167835 629.42885 72.246941 629.12503 63.306641 626.97461 C 57.806641 625.65168 51.056641 624.07779 48.306641 623.47656 C 45.556641 622.87534 39.636914 620.38444 35.152344 617.94141 L 27 613.5 L 26.296875 603.19336 C 25.652915 593.74556 26.40737 581.6861 28.8125 563 C 29.23726 559.7 30.782954 552.725 32.246094 547.5 C 33.709244 542.275 35.350541 536.3125 35.894531 534.25 C 36.946291 530.26234 40.946669 528.81503 42.162109 531.98242 C 42.878729 533.8499 45.762121 533.34072 59.806641 528.86523 C 65.581641 527.02494 70.774613 525.51477 71.345703 525.50977 z M 736.04102 608.54102 C 738.23344 608.57481 739.01809 612.01764 740.57031 620.25 C 742.89901 632.60048 744.1125 641.82317 745.79492 660 C 747.06653 673.73846 747.09595 740.91252 745.83594 752.89062 C 744.5059 765.53446 746.50898 768.842 758.00391 772.98633 C 764.02608 775.15753 764.35832 775.45321 765.47461 779.62891 C 766.11726 782.03288 767.98687 788.5 769.62891 794 C 771.27094 799.5 773.1489 807.15 773.80078 811 C 774.45265 814.85 775.355 819.71773 775.80664 821.81641 C 776.81432 826.49893 778.34645 825.83892 756.80664 829.99805 C 752.13164 830.90074 746.73164 832.07688 744.80664 832.61328 C 742.88164 833.14968 737.03164 834.26179 731.80664 835.08398 C 720.10382 836.9255 707.7751 839.08364 701.80664 840.33594 C 699.33164 840.85525 692.80664 842.0447 687.30664 842.97852 C 681.80664 843.91235 673.70664 845.59121 669.30664 846.70898 C 664.90664 847.82675 659.73164 849.07179 657.80664 849.47656 C 650.71897 850.9669 629.20848 858.70413 626.0625 860.89453 C 620.81361 864.54907 611.56382 878.77438 609.73828 886 C 609.32141 887.65 608.22543 891.7 607.30273 895 C 606.13564 899.17403 605.52054 906.02142 605.2832 917.5 C 604.92302 934.91911 605.25011 939.46687 609.26367 973 C 612.65536 1001.3373 612.62029 1002.3099 607.85742 1013.7539 C 605.68579 1018.9718 603.61054 1025.5016 603.24414 1028.2637 L 602.57812 1033.2852 L 612.77148 1036.5371 C 624.48678 1040.2743 624.53502 1040.3351 624.9082 1051.6289 C 625.2075 1060.6869 624.58999 1060.9543 613.57812 1056.5449 C 604.16534 1052.7757 603.59185 1052.7764 600.39453 1056.5762 C 597.96968 1059.4579 597.32771 1061.0474 596.58398 1066 C 596.34492 1067.5919 595.28335 1068.1154 591.38086 1068.5645 C 586.9974 1069.0689 585.91305 1069.7362 581.14258 1074.8613 C 578.20793 1078.0142 575.80664 1081.212 575.80664 1081.9688 C 575.80664 1082.7253 574.25058 1083.8589 572.34961 1084.4863 C 570.44865 1085.1137 564.57309 1088.5565 559.29297 1092.1367 L 549.69336 1098.6465 L 550.19336 965.32227 C 550.4686 891.9948 550.89869 829.75 551.14844 827 C 551.83046 819.49008 552.92526 774.95049 552.82031 758.96875 L 552.72852 744.93555 L 602.51758 744.9668 C 653.27623 744.99987 664.73363 744.38175 678.30664 740.87305 C 681.60664 740.01998 685.51126 739.09096 686.98242 738.80859 C 689.20739 738.38153 689.84519 737.50543 690.78125 733.60352 C 694.55535 717.87132 689.60831 685.40118 680.86133 668.5 C 680.12814 667.0833 677.33068 666.94546 667.24023 667.83008 C 665.4451 667.98746 665.26572 667.06681 664.73438 655 C 664.1226 641.10643 662.70685 636.47782 657.6543 631.85156 C 654.88063 629.31191 647.00551 626.5 642.66406 626.5 C 639.8111 626.5 639.63908 626.30276 640.2793 623.75195 C 640.65863 622.24058 641.06666 620.90795 641.18555 620.78906 C 641.30444 620.67017 644.97962 621.47136 649.35352 622.57031 C 684.71645 631.45525 708.63782 628.52191 728.86914 612.81836 C 732.38218 610.09154 734.54094 608.51789 736.04102 608.54102 z M 29.466797 627.42383 C 32.776404 627.59262 40.997383 629.92436 53.806641 634.33984 L 65.306641 638.30469 L 84.806641 638.8125 C 121.60098 639.77219 144.47685 646.15979 152.93359 657.83398 C 155.97779 662.03638 159.49184 672.14843 158.31641 673.32422 C 157.35594 674.28498 124.86588 674.30847 115.30664 673.35547 C 110.90664 672.91682 101.68164 672.2574 94.806641 671.89062 L 82.306641 671.22461 L 78.056641 675.83984 C 75.719141 678.37829 73.806641 681.14123 73.806641 681.97852 C 73.806641 685.1238 69.961203 683.26436 60.757812 675.66992 C 47.365592 664.61896 40.547944 656.65607 35.351562 646 C 31.438014 637.97462 27.806641 629.3033 27.806641 627.98047 C 27.806641 627.55321 28.363595 627.36756 29.466797 627.42383 z M 446.75391 658.76758 C 447.79626 658.75307 448.41471 658.77408 448.48047 658.83984 C 448.62493 658.9843 449.03865 661.6214 449.40039 664.69922 L 450.05859 670.29492 L 440.68164 670.92383 C 435.52505 671.26958 419.2696 671.65212 404.55664 671.77539 C 380.42091 671.97759 377.80589 671.8415 377.80664 670.37305 C 377.8071 669.4779 378.36914 668.31147 379.05664 667.78125 C 380.47787 666.68516 396.07947 663.0691 405.80664 661.58203 C 411.33615 660.73669 439.45744 658.86913 446.75391 658.76758 z M 1093.8066 751.23828 L 1097.2188 751.79297 C 1100.6035 752.34224 1116.5758 758.93858 1118.1016 760.41797 C 1119.8636 762.12636 1114.3916 798.46317 1111.2344 806.01953 C 1109.1923 810.9069 1108.5628 810.86055 1104.9434 805.55664 C 1103.1404 802.9144 1099.8346 798.90193 1097.5957 796.64062 C 1093.6566 792.66212 1093.5436 792.36681 1094.123 787.47461 C 1094.68 782.77101 1094.5503 782.35371 1092.2637 781.48438 C 1089.3211 780.3656 1089.3662 781.09304 1091.8066 774 C 1093.1919 769.97341 1093.8066 765.58281 1093.8066 759.71289 L 1093.8066 751.23828 z "
       style="fill:#000000" />
    <path
       id="path8189"
       d="m -176.70569,1181.5028 c 0.12259,-0.092 -0.15922,-1.7168 -0.62625,-3.6108 -3.75706,-15.2372 -4.65929,-37.2635 -1.75056,-42.7372 2.21706,-4.172 5.81111,-5.959 8.91245,-4.4313 2.62108,1.2912 14.47418,1.9165 62.24146,3.2835 19.25,0.5509 36.35,1.1781 38,1.3937 1.65,0.2156 25.5,0.8675 53,1.4487 27.5,0.5812 56.075,1.3762 63.5,1.7667 7.425,0.3905 30.825,0.7398 52,0.7762 42.8556,0.074 41.2848,-0.1712 44.86057,6.9946 2.07785,4.164 6.13943,24.6222 6.13943,30.9243 0,1.9354 0.36407,3.744 0.80904,4.019 1.64751,1.0182 16.14045,1.8527 20.58959,1.1855 l 4.60137,-0.69 v -60.2728 c 0,-33.15 -0.29972,-133.29258 -0.66605,-222.53905 L 174.2393,736.74752 -4.34464,737.09787 c -153.72038,0.30157 -180.4635,0.14151 -192.08395,-1.14965 -15.8905,-1.76561 -28.6876,-1.77274 -31.96672,-0.0178 l -2.34364,1.25427 0.67457,23.63177 c 0.37101,12.99747 0.89627,28.13177 1.16724,33.63177 0.27096,5.5 0.93817,22.15 1.48267,37 0.98442,26.84756 3.08208,59.89707 5.01415,79 0.55627,5.5 1.44087,17.06771 1.96577,25.70602 0.52491,8.63832 1.38172,19.66332 1.90403,24.5 0.52231,4.83669 1.48696,15.99398 2.14368,24.79398 0.65671,8.8 1.74415,20.94997 2.41652,26.99997 0.67238,6.05 1.31448,15.05 1.42689,20 0.11241,4.95 0.88764,15.975 1.72272,24.5 0.83509,8.525 1.92125,21.125 2.41371,28 0.49245,6.875 1.37777,16.775 1.96737,22 0.5896,5.225 1.49172,15.575 2.0047,23 1.10405,15.9803 2.55579,30.6418 4.05968,41 1.95356,13.4552 0.40345,12.0713 12.71307,11.3503 5.90347,-0.3458 10.83389,-0.7039 10.95649,-0.7957 z"
       style="fill:#395757;fill-opacity:1" />
    <path
       id="path8187"
       d="m 319.57141,1172.5241 104.5,-0.1446 5.20221,-2.3182 c 4.41155,-1.9659 8.29779,-5.5263 8.29779,-7.602 0,-0.7138 -234.80596,0.3345 -241.5,1.0781 -7.70821,0.8563 -8.50168,1.2517 -8.48469,4.2282 0.0316,5.5302 2.55451,6.2923 17.98469,5.4324 5.225,-0.2912 56.525,-0.5944 114,-0.6739 z"
       style="fill:#e8e8b6;fill-opacity:1" />
    <path
       id="path8185"
       d="m 137.66398,1164.4354 c -0.21899,-2.193 -0.4419,-5.1122 -0.49536,-6.4872 -0.14557,-3.7436 -3.71076,-3.3714 -4.78841,0.5 -1.42607,5.123 0.87499,10.9001 4.0946,10.2801 1.21711,-0.2344 1.49446,-1.2356 1.18917,-4.2929 z"
       style="fill:#e8e8b6;fill-opacity:1" />
    <path
       id="path8183"
       d="m 582.07141,1166.3675 c 13.2,-0.8109 28.05,-1.967 33,-2.569 5.0342,-0.6124 27.8003,-1.151 51.6659,-1.2225 23.4663,-0.07 42.9706,-0.4321 43.343,-0.8041 1.0329,-1.0318 -3.8596,-3.1925 -16.5089,-7.2907 -6.325,-2.0492 -12.4,-4.236 -13.5,-4.8595 -1.1,-0.6236 -6.95,-3.6317 -13,-6.6848 -15.1784,-7.6598 -25.4584,-14.6025 -25.6586,-17.3291 -0.087,-1.1878 -0.061,-4.4096 0.059,-7.1596 0.1196,-2.75 -0.2801,-12.875 -0.888,-22.5 -0.608,-9.625 -1.5251,-24.2469 -2.0382,-32.4931 -0.5263,-8.4597 -1.3775,-15.1414 -1.9533,-15.3334 -0.5613,-0.1871 -1.0206,-1.4011 -1.0206,-2.6978 0,-3.0047 -1.4034,-3.8654 -4.0195,-2.4652 -1.6549,0.8856 -2.753,0.6752 -5.5733,-1.0679 -1.9318,-1.1939 -3.7553,-1.9278 -4.0523,-1.6309 -0.2969,0.2969 -0.028,9.4608 0.5984,20.3641 0.626,10.9033 1.3387,24.0992 1.5837,29.3242 0.7283,15.5313 1.5696,27.361 2.1054,29.6072 0.4158,1.7427 -0.8502,2.9717 -7.3198,7.1064 -7.7679,4.9644 -31.65661,17.3772 -44.55216,23.1498 -11.09822,4.968 -16.51684,9.0846 -20.25311,15.3866 -1.96648,3.3169 -4.94927,3.1922 27.98267,1.1693 z"
       style="fill:#97a7a7;fill-opacity:1" />
    <path
       id="path8181"
       d="m 296.12024,1153.7327 c 0.41009,-0.4101 -18.8628,-40.356 -20.09279,-41.6452 -0.73272,-0.768 -15.23919,-0.084 -20.60912,0.9714 -6.26631,1.2319 -7.04585,0.9172 -28.55252,-11.5261 -9.51487,-5.5051 -9.21132,-5.5361 -19.30107,1.9709 -4.12133,3.0663 -9.56809,7.1179 -12.10391,9.0034 -7.10741,5.285 -9.74683,12.1049 -10.54455,27.2455 -0.34785,6.6021 -0.35703,12.7215 -0.0204,13.5988 0.55226,1.4391 5.98955,1.5606 55.66306,1.2433 30.27806,-0.1935 55.28065,-0.5813 55.56131,-0.862 z"
       style="fill:#cfeede;fill-opacity:1" />
    <path
       id="path8179"
       d="m 408.57141,1151.8835 c 7.425,-0.5099 16.26968,-0.929 19.65484,-0.9312 h 6.15485 l -0.54414,-4.25 c -1.13301,-8.8495 -7.5309,-18.0824 -24.67559,-35.6099 -6.64948,-6.802 -15.01496,-14.7054 -18.58996,-17.5672 -18.5552,-14.8533 -29.64507,-22.577 -32.41678,-22.577 -0.83207,0 -2.03817,1.0125 -2.68023,2.25 -2.52094,4.8589 -8.36627,10.9958 -14.24186,14.9523 -6.13701,4.1326 -6.19895,4.1491 -15.82328,4.2233 -8.51803,0.066 -10.023,-0.192 -12.70951,-2.1756 -5.94438,-4.389 -8.71378,-1.6429 -7.85824,7.7921 0.72392,7.9835 6.39455,19.5122 18.17859,36.9579 13.4172,19.8635 10.66559,17.887 25.43013,18.2671 16.46394,0.4239 43.17201,-0.1678 60.12118,-1.3318 z"
       style="fill:#cfeede;fill-opacity:1" />
    <path
       id="path8177"
       d="m 310.57141,1151.1707 c 0,-0.9776 -0.62009,-2.6651 -1.37798,-3.75 -0.75788,-1.0849 -4.21347,-7.3725 -7.67909,-13.9725 -3.46561,-6.6 -7.26066,-13.575 -8.43344,-15.5 -1.17277,-1.925 -2.72177,-4.9625 -3.44222,-6.75 -0.72045,-1.7875 -1.88217,-3.25 -2.5816,-3.25 -5.69368,0 1.24631,18.698 14.19693,38.25 3.47495,5.2462 5.01083,6.75 6.8942,6.75 1.65542,0 2.4232,-0.5632 2.4232,-1.7775 z"
       style="fill:#058670;fill-opacity:1" />
    <path
       id="path8175"
       d="m 314.78378,1136.8563 c -3.77926,-6.2744 -8.59867,-14.91 -10.70981,-19.1902 -4.93762,-10.0106 -6.94184,-8.8629 -2.4766,1.4182 3.52506,8.1164 4.84378,10.4619 12.77093,22.7142 8.34557,12.899 8.69048,8.7963 0.41548,-4.9422 z"
       style="fill:#058670;fill-opacity:1" />
    <path
       id="path8173"
       d="m 194.76096,1103.3844 c 5.12075,-2.5101 11.11045,-5.5135 13.31045,-6.6742 2.2,-1.1607 7.6,-3.9715 12,-6.2462 8.13925,-4.2078 22.98526,-12.973 27.47778,-16.2232 1.36278,-0.9859 5.32573,-3.678 8.80657,-5.9824 l 6.3288,-4.1897 -6.30658,-4.0398 c -11.25008,-7.2063 -15.7995,-6.8791 -15.82022,1.1379 -0.0257,9.9395 -0.0827,9.9977 -9.0288,9.2173 l -7.77925,-0.6786 -2.49621,3.9543 c -3.45663,5.4756 -7.27132,8.447 -17.25443,13.44 -12.81439,6.409 -19.42766,12.9844 -19.42766,19.3163 0,2.041 -0.40474,2.1614 10.18955,-3.0317 z"
       style="fill:#cfeede;fill-opacity:1" />
    <path
       id="path8171"
       d="m 268.38651,1101.8069 c 1.2733,-0.4723 3.1812,-0.8587 4.23977,-0.8587 5.98428,0 28.86831,-19.4065 27.00017,-22.8971 -1.66609,-3.1132 -11.45936,-11.4344 -17.44799,-14.8253 -6.82864,-3.8666 -7.1859,-3.4545 -5.86686,6.7677 0.90141,6.9857 0.87089,7.1521 -1.47497,8.044 -3.84061,1.4602 -5.12193,1.1026 -8.13553,-2.2702 -2.71076,-3.0338 -2.98898,-3.12 -6.0198,-1.8646 -4.2587,1.764 -7.10989,5.6016 -7.10989,9.5696 0,1.7899 -0.8181,4.2646 -1.818,5.4995 -1.73919,2.1478 -2.10135,2.1958 -8.35494,1.1067 -8.17698,-1.4239 -12.64438,-0.6253 -14.07575,2.5162 -0.59191,1.2991 -0.89059,2.4747 -0.66375,2.6124 0.22684,0.1378 4.23744,2.1414 8.91244,4.4525 l 8.5,4.2019 10,-0.5979 c 5.5,-0.3289 11.04179,-0.9844 12.3151,-1.4567 z"
       style="fill:#cfeede;fill-opacity:1" />
    <path
       id="path8167"
       d="m 331.57141,1080.9689 c 7.54254,-1.1224 9.7712,-3.1567 12.41009,-11.3275 1.89327,-5.8622 1.81011,-5.9809 -5.28035,-7.5358 -2.95364,-0.6477 -6.77864,-1.8084 -8.5,-2.5793 -1.72136,-0.7708 -6.05474,-1.6229 -9.62974,-1.8935 -3.575,-0.2706 -7.95677,-1.2404 -9.73726,-2.1552 -5.33591,-2.7414 -5.88269,-0.6096 -3.06697,11.9574 1.47785,6.5959 10.39138,15.7045 14.64382,14.9643 1.46323,-0.2547 5.58541,-0.8984 9.16041,-1.4304 z"
       style="fill:#1746b8;fill-opacity:1" />
    <path
       id="path8165"
       d="m 298.04047,1064.4345 c -0.017,-0.5425 -0.39652,-5.3738 -0.84333,-10.7363 l -0.81238,-9.75 h -4.95116 c -10.33163,0 -23.31342,4.8428 -21.37768,7.9749 0.26058,0.4217 2.74792,0.9851 5.52741,1.2522 5.38741,0.5177 14.5461,5.8825 17.83209,10.4455 1.61514,2.2427 4.68683,2.7832 4.62505,0.8137 z"
       style="fill:#1746b8;fill-opacity:1" />
    <path
       id="path8163"
       d="m 352.57141,1029.5071 c 15.6274,-2.2521 20.37965,-4.8745 22.0209,-12.1516 1.31914,-5.8488 0.0521,-10.4835 -7.16416,-26.20578 -1.69172,-3.6858 -4.62268,-11.6515 -6.51324,-17.7015 -1.89057,-6.05 -3.86627,-12.03367 -4.39045,-13.29705 -0.52418,-1.26338 -0.95305,-7.03121 -0.95305,-12.81739 0,-12.76225 0.56095,-12.72945 -19.06609,-1.11455 -4.16134,2.46261 -8.66134,4.81496 -10,5.22744 l -2.43391,0.74997 2.46811,-2.67083 c 1.35747,-1.46896 6.64497,-5.90174 11.75,-9.85063 5.10504,-3.94889 9.28189,-7.49301 9.28189,-7.87583 0,-1.92384 -15.79585,-4.83191 -26.30902,-4.84358 -4.28295,-0.005 -6.57973,-0.37854 -6.19098,-1.00755 0.3428,-0.55466 4.90699,-1 10.24882,-1 12.56407,0 21.25118,-1.72704 21.25118,-4.22483 0,-1.07512 -1.12966,-2.2462 -2.75,-2.85082 -13.4775,-5.02905 -24.25,-14.66228 -24.25,-21.6854 0,-4.6628 2.55308,-4.81319 4.3758,-0.25776 5.59631,13.98657 37.4898,20.68681 81.23778,17.0666 6.11247,-0.50582 22.24091,-1.24259 35.84097,-1.63727 l 24.72738,-0.71759 -0.55153,-3.09647 c -0.30334,-1.70305 -1.23831,-9.39646 -2.07771,-17.09646 -0.83941,-7.7 -1.95717,-15.8 -2.48393,-18 -0.52676,-2.2 -1.21533,-7.15 -1.53016,-11 -0.31483,-3.85 -1.27019,-11.95 -2.12303,-18 -0.85284,-6.05 -1.85774,-13.25 -2.2331,-16 l -0.68247,-5 -8.5,0.26418 c -4.675,0.14529 -11.875,0.69847 -16,1.22928 -4.125,0.53081 -15.825,1.90609 -26,3.05619 -10.175,1.1501 -21.875,2.73209 -26,3.51552 -4.125,0.78344 -9.75,1.85016 -12.5,2.37049 -2.75,0.52032 -8.375,1.43681 -12.5,2.03663 -4.125,0.59982 -9.075,1.50116 -11,2.00298 -1.925,0.50181 -6.65,1.63122 -10.5,2.50979 -23.41151,5.34252 -42.85886,14.37336 -47.35229,21.98916 -2.68581,4.55211 -7.79573,25.45283 -9.1374,37.37401 -0.64933,5.76947 -0.94839,31.13183 -0.7812,66.25 l 0.27089,56.90175 h 2.87166 c 4.65866,0 23.45454,2.9191 32.62834,5.0673 16.35226,3.8292 28.73839,4.5469 43,2.4916 z"
       style="fill:#90afef;fill-opacity:1" />
    <path
       id="path8161"
       d="m 264.42475,1017.8743 3.35334,-4.0378 -1.12106,-24.19408 c -3.24203,-69.96813 -3.43006,-86.13129 -1.1861,-101.95919 2.17775,-15.36092 4.6866,-24.29872 8.13612,-28.98501 l 2.02423,-2.75 h -3.5435 c -7.45169,0 -16.51637,8.7955 -16.51637,16.0259 0,1.15807 -0.4087,2.86925 -0.90823,3.80262 -2.78367,5.20133 -3.25119,35.88083 -1.14553,75.17148 1.52576,28.4699 0.16349,46.2798 -4.97182,64.99998 -1.24714,4.5463 0.57552,6.0065 7.46671,5.982 4.6805,-0.017 5.30968,-0.3201 8.41221,-4.0559 z"
       style="fill:#90afef;fill-opacity:1" />
    <path
       id="path8159"
       d="m 509.92724,1019.6773 c 2.14721,-1.5701 1.2174,-5.6382 -6.36498,-27.84788 -7.50372,-21.97937 -7.33298,-22.22457 6.47795,-9.3029 15.84323,14.8232 27.42148,22.42168 34.16513,22.42168 3.17379,0 5.82707,-5.77168 4.99902,-10.87448 -1.06856,-6.5847 -12.27462,-15.0528 -30.5534,-23.08833 -6.37425,-2.80218 -6.58895,-3.01555 -6.88086,-6.83812 -0.21773,-2.85121 0.1313,-4.1117 1.25828,-4.54417 1.40532,-0.53927 10.89062,2.54889 20.76091,6.75921 6.61089,2.81996 18.76835,1.44585 25.34742,-2.86492 2.14981,-1.40861 2.31596,-1.90354 1.28685,-3.83331 -4.58881,-8.60483 -12.81492,-14.3876 -27.35215,-19.22792 -4.4,-1.46503 -10.475,-3.90546 -13.5,-5.42319 -7.0262,-3.52524 -8.04565,-7.9352 -3.2222,-13.9387 8.72364,-10.85789 8.94928,-20.88716 0.77325,-34.36969 l -3.48305,-5.74363 0.99463,-16.75637 c 0.54704,-9.216 1.42537,-20.58136 1.95184,-25.25636 0.52646,-4.675 1.25777,-15.1375 1.62512,-23.25 l 0.66793,-14.75 h -3.99721 c -2.19847,0 -6.65516,0.97038 -9.90376,2.15639 -6.48769,2.36856 -14.99282,3.54609 -32.23025,4.46228 -8.27484,0.43981 -11.46626,0.97338 -11.85319,1.98171 -0.78591,2.04805 2.08867,33.31886 5.18455,56.39962 0.92216,6.875 2.04643,15.65 2.49837,19.5 1.92404,16.39046 5.52121,39.56824 7.83755,50.5 0.52443,2.475 1.93965,9.45 3.14494,15.5 7.05071,35.3915 11.65895,50.00298 20.26334,64.24998 3.36514,5.5719 6.32924,6.7392 10.10397,3.9791 z"
       style="fill:#efc89f;fill-opacity:1" />
    <path
       id="path8157"
       d="m 469.46575,1003.0347 c 1.1408,-0.7224 1.18626,-1.7093 0.25,-5.42748 -2.52161,-10.0143 -1.07228,-19.659 2.9542,-19.659 1.68581,0 1.97528,-0.54862 1.71482,-3.25 l -0.31336,-3.25 -10,-0.74801 c -11.56428,-0.86502 -12.42086,-1.46133 -15.25666,-10.621 -1.89361,-6.11638 -2.43252,-25.15092 -0.92727,-32.75178 0.77762,-3.92665 0.69146,-4.14462 -1.82882,-4.6264 -3.63242,-0.69438 -3.88723,0.46631 -3.07714,14.01634 0.85635,14.3236 2.71237,23.39627 6.59676,32.24651 1.64622,3.75076 2.99313,7.31663 2.99313,7.92415 0,2.78099 13.40635,27.08467 14.91841,27.04487 0.31988,-0.01 1.20904,-0.4126 1.97593,-0.8982 z"
       style="fill:#efc89f;fill-opacity:1" />
    <path
       id="path8155"
       d="m 629.49861,964.92893 c 58.6692,-1.81554 67.2688,-2.34781 88.0728,-5.45131 19.5863,-2.92185 47.6805,-10.92638 49.4274,-14.08274 0.5899,-1.06594 1.8224,-3.08146 2.7387,-4.47894 3.565,-5.43666 7.0748,-18.84276 6.6559,-25.42252 -0.4943,-7.76181 -5.3625,-18.19656 -10.4434,-22.38469 -9.2906,-7.65808 -21.2686,-11.07675 -26.1967,-7.47684 -9.3155,6.80487 -44.4494,19.31633 -54.243,19.31633 -1.6628,0 -6.2667,0.62649 -10.2311,1.39219 -3.9643,0.76571 -13.0578,1.90432 -20.2078,2.53025 -15.0914,1.32114 -28.7595,2.5518 -47,4.23185 -7.15,0.65855 -17.725,1.31063 -23.5,1.44905 -5.775,0.13843 -20.59815,0.67573 -32.94034,1.194 l -22.44034,0.94232 -2.33286,2.88017 c -1.60991,1.98762 -2.24819,3.91592 -2.05966,6.22243 0.26511,3.24326 0.52497,3.42867 8.7732,6.25969 22.82854,7.83537 32.71189,15.89333 34.52451,28.14805 l 0.70258,4.75 7.63645,0.10853 c 4.20005,0.0597 10.33646,0.44131 13.63646,0.84803 3.3,0.40672 6.64222,0.56641 7.42716,0.35487 0.78494,-0.21155 15.18494,-0.81037 32.00004,-1.33072 z"
       style="fill:#ce3e01;fill-opacity:1" />
    <path
       id="path8153"
       d="m 471.24405,954.37247 c -0.34596,-5.26667 -1.42633,-14.49113 -2.40082,-20.4988 l -1.77182,-10.92304 -5.69098,-0.001 c -3.13004,-6.7e-4 -5.98045,0.46716 -6.33424,1.0396 -1.46021,2.36266 -1.78282,23.80093 -0.40857,27.15032 2.39885,5.84662 10.32919,12.66781 14.83461,12.75983 l 2.40083,0.049 -0.62901,-9.57575 z"
       style="fill:#ce3e01;fill-opacity:1" />
    <path
       id="path8151"
       d="m 611.07141,902.96025 c 3.3,-0.60285 10.05,-1.50541 15,-2.0057 4.95,-0.50029 13.5,-1.36447 19,-1.9204 24.144,-2.44042 29.3176,-3.10708 34.5,-4.44556 3.025,-0.78128 9.1561,-2.14725 13.6247,-3.03549 4.4686,-0.88824 11.393,-2.96271 15.3875,-4.60993 3.9946,-1.64722 8.011,-2.99495 8.9253,-2.99495 0.9144,0 2.09,-0.40002 2.6125,-0.88894 0.5225,-0.48891 4.0305,-1.91417 7.7956,-3.16723 3.765,-1.25306 7.1069,-2.99054 7.4263,-3.86106 0.3195,-0.87052 1.5876,-2.93277 2.8181,-4.58277 5.1605,-6.92003 9.0397,-23.21586 7.8556,-33 -2.0643,-17.05695 -12.8622,-37.42435 -24.5298,-46.26876 -1.7923,-1.35864 -8.1518,1.486 -15.4158,6.89556 -17.8996,13.32997 -25.0401,14.42262 -27.0954,4.14616 -0.7069,-3.53423 -3.3598,-4.70614 -6.9502,-3.07021 -3.084,1.40514 -3.4956,2.68884 -4.174,13.01879 l -0.5728,8.72153 -5.1038,1.44159 c -2.8071,0.79288 -7.5788,1.91322 -10.6038,2.48965 -16.8176,3.20465 -16.6164,3.18855 -56.76774,4.5437 l -12.26775,0.41405 -1.60164,-3.09724 c -0.8809,-1.70348 -2.02294,-6.49071 -2.53787,-10.63831 -0.51492,-4.14759 -1.07745,-7.68229 -1.25005,-7.85489 -0.1726,-0.1726 -3.18507,0.0432 -6.69438,0.47965 l -6.38057,0.79347 0.18516,4.99263 c 0.10184,2.74595 0.32684,6.34263 0.5,7.99263 l 0.31484,3 -8,0.82077 c -16.5599,1.699 -16.62319,2.57615 -0.95175,13.1904 16.02924,10.8566 23.45175,17.81151 23.45175,21.97435 0,0.93143 -3.78536,-1.34231 -9.86846,-5.92765 -10.09538,-7.60975 -17.13154,-10.76511 -17.13154,-7.68261 0,0.38972 2.925,3.73606 6.5,7.43631 6.81373,7.05245 7.50594,8.36518 4.93183,9.35296 -1.08729,0.41724 -5.45699,-3.23429 -14.25,-11.90797 -10.95462,-10.80595 -18.76074,-16.75656 -21.98159,-16.75656 -1.81242,0 -3.70024,14.79543 -3.70024,29 0,14.36729 0.0291,14.55491 3.17876,20.5 1.74831,3.3 3.46941,7.575 3.82465,9.5 0.35525,1.925 0.85022,4.23263 1.09994,5.12807 0.45731,1.63985 5.25756,3.33389 13.19344,4.65606 5.41515,0.9022 57.65505,-1.30187 65.70321,-2.7721 z"
       style="fill:#90afef;fill-opacity:1" />
    <path
       id="path8149"
       d="m 756.85771,817.17838 c 0.3107,-2.62342 1.2669,-6.78592 2.1248,-9.25 0.8579,-2.46409 1.5663,-5.68837 1.5743,-7.16506 0.01,-1.4767 0.5089,-3.9517 1.113,-5.5 1.1618,-2.97753 6.5608,-28.22595 7.9137,-37.00863 0.44,-2.85644 1.1136,-5.7009 1.4969,-6.32103 0.4769,-0.77158 -0.3616,-1.02616 -2.6561,-0.80647 -2.8857,0.2763 -3.6625,0.96867 -5.5745,4.96878 -2.2998,4.81134 -6.8861,20.60989 -8.5208,29.35225 -1.2274,6.56374 -2.0999,28.86164 -1.2969,33.14235 0.9433,5.02807 3.1598,4.20987 3.8256,-1.41219 z"
       style="fill:#97a7a7;fill-opacity:1" />
    <path
       id="path8147"
       d="m 430.57141,815.45181 c 4.675,-0.0273 10.20654,-0.43045 12.2923,-0.89585 3.99372,-0.89114 10.40411,-6.33618 9.01924,-7.66103 -0.44635,-0.42701 -5.98654,-2.44574 -12.31154,-4.48608 -6.325,-2.04034 -13.2487,-4.5424 -15.38601,-5.56013 -2.1373,-1.01773 -4.2748,-1.61013 -4.75,-1.31644 -0.47519,0.29368 -0.86399,5.28056 -0.86399,11.08195 0,9.69535 0.14146,10.48085 1.75,9.7176 0.9625,-0.45669 5.575,-0.85271 10.25,-0.88002 z"
       style="fill:#efc89f;fill-opacity:1" />
    <path
       id="path8145"
       d="m 621.57141,799.95028 c 2.475,-0.49389 8.55,-1.43804 13.5,-2.0981 4.95,-0.66007 9.4275,-1.58349 9.95,-2.05204 0.5225,-0.46856 2.6896,-0.85192 4.8157,-0.85192 2.1262,0 4.6686,-0.42968 5.6499,-0.95485 0.9813,-0.52516 5.2678,-1.88838 9.5255,-3.02936 4.2577,-1.14098 9.8377,-3.12193 12.4001,-4.4021 2.5623,-1.28016 5.8838,-2.62238 7.3809,-2.98269 3.4349,-0.82664 7.2018,-6.28889 9.3502,-13.55818 3.7878,-12.81646 4.5995,-14.91834 6.3858,-16.53492 1.4916,-1.34987 2.302,-1.46909 3.9587,-0.58242 2.4618,1.31749 2.4366,1.19827 2.5189,11.94768 0.036,4.6771 0.5103,8.55782 1.0702,8.75196 1.4685,0.50924 9.4941,-15.8591 9.4941,-19.3635 0,-5.41527 -7.4428,-24.68228 -11.2978,-29.24629 -3.5241,-4.17232 -5.5758,-8.20018 -10.7899,-21.183 -4.3763,-10.89656 -7.7235,-18.02432 -8.8577,-18.86233 -0.947,-0.69965 -6.8584,-10.8356 -12.5391,-21.5 -7.7021,-14.45916 -13.4051,-22.43111 -28.973,-40.5 -14.6424,-16.99482 -43.41508,-40.24216 -63.0425,-50.93621 -3.3,-1.79801 -9.07415,-5.06417 -12.83145,-7.25813 -9.41713,-5.49885 -35.09457,-17.80566 -37.15047,-17.80566 -0.92609,0 -9.6232,-8.14124 -19.32691,-18.09164 -16.43751,-16.85538 -29.86587,-28.68093 -38.19117,-33.6327 -6.30876,-3.75236 -20.61475,-8.12629 -30.69266,-9.38402 -9.79531,-1.22245 -9.94238,-1.20931 -15.34871,1.37114 -9.93385,4.74144 -20.83146,17.83234 -23.09003,27.73722 -3.03696,13.31844 -3.90213,19.44389 -4.8711,34.48757 -0.6018,9.34317 -1.5607,18.79317 -2.13088,21 -0.57019,2.20684 -1.3393,5.58743 -1.70913,7.51243 -0.36983,1.925 -1.69071,5.4125 -2.93528,7.75 -2.3797,4.46946 -4.45885,5.25989 -7.66632,2.91452 -4.30482,-3.14776 -8.64357,0.86567 -7.19128,6.65206 0.79377,3.16265 5.0367,5.42518 7.04626,3.75739 0.81347,-0.67512 2.51631,-1.08045 3.78409,-0.90073 2.15241,0.30512 2.34942,0.92271 2.97522,9.32676 0.86984,11.68119 2.59361,27.42607 3.83185,35 0.5395,3.3 1.43418,10.725 1.98816,16.5 0.55398,5.775 1.45728,12.75 2.00734,15.5 0.55005,2.75 1.69549,13.1 2.54541,23 0.84993,9.9 1.96944,22.5 2.48782,28 0.51837,5.5 1.32529,16.75 1.79315,25 0.68329,12.04875 1.25754,15.79184 2.91871,19.02462 2.24511,4.36915 9.51848,11.63449 15.82633,15.80882 10.80026,7.14728 39.65287,13.09825 58.43105,12.05166 12.70728,-0.70824 26.94841,-3.8738 35.51,-7.89328 9.20562,-4.32184 17.60927,-12.85595 17.44603,-17.71686 -0.0605,-1.80123 -0.57661,-16.97994 -1.14694,-33.73046 -1.22717,-36.04204 -0.64269,-42.42402 5.63644,-61.5445 2.34804,-7.15 5.08104,-16.05927 6.07334,-19.79839 1.56172,-5.88479 2.08482,-6.75509 3.89265,-6.47625 1.14866,0.17717 1.99847,0.80648 1.88845,1.39847 -0.11002,0.59199 -0.67488,4.63131 -1.25525,8.97626 -0.58037,4.34495 -1.71901,11.49991 -2.5303,15.89991 -0.81129,4.4 -1.48392,12.02616 -1.49475,16.94702 l -0.0197,8.94702 5.60838,-8.94702 c 7.18539,-11.46278 12.30501,-18.44702 13.52213,-18.44702 3.19603,0 -5.08984,18.97371 -12.23134,28.00838 -6.68498,8.45714 -11.49535,20.99162 -8.05597,20.99162 1.34953,0 14.95776,-9.82186 15.87222,-11.45591 1.36813,-2.44471 9.38919,-10.54409 10.44213,-10.54409 2.25699,0 -3.07809,11.48066 -7.47963,16.09556 -1.78588,1.87244 -6.75821,6.52111 -11.04963,10.33037 l -7.80258,6.92592 0.62629,4.17643 c 1.24796,8.32202 0.77562,30.79172 -0.76668,36.47172 -2.64518,9.74165 -3.40952,10.99047 -7.9582,13.00257 -5.47208,2.42056 -8.99084,6.1358 -8.55947,9.03741 0.30117,2.0258 0.98006,2.26798 7.23061,2.57943 3.79403,0.18904 7.16903,0.62056 7.5,0.95894 0.8962,0.91623 70.87477,-0.53323 76.10177,-1.57629 z"
       style="fill:#0170fd;fill-opacity:1" />
    <path
       id="path8141"
       d="m 400.56735,740.69822 c -0.004,-17.11147 -2.01059,-44.1818 -4.0583,-54.75 -0.58613,-3.025 -1.4775,-8.875 -1.98082,-13 -0.50332,-4.125 -1.31941,-10.2 -1.81355,-13.5 -0.49413,-3.3 -1.41722,-9.6 -2.05132,-14 -2.89314,-20.07563 -3.39679,-22.5 -4.67417,-22.5 -1.02901,0 -1.20959,3.27661 -0.86805,15.75 0.43584,15.91708 1.03511,42.15907 1.79835,78.75 0.46231,22.16341 1.7548,30.03487 5.9801,36.41973 1.95569,2.95525 3.38559,4.08027 5.18601,4.08027 h 2.48581 l -0.004,-17.25 z"
       style="fill:#0170fd;fill-opacity:1" />
    <path
       id="path8139"
       d="m 765.88271,737.36755 c 14.0017,-3.62821 25.4622,-12.7527 32.5549,-25.91933 1.1851,-2.2 2.5619,-4.675 3.0594,-5.5 0.4976,-0.825 1.8987,-3.975 3.1136,-7 1.2149,-3.025 3.0153,-7.3 4.0009,-9.5 2.8247,-6.30503 7.3248,-24.44533 9.9229,-40 0.6431,-3.85 1.5707,-9.025 2.0615,-11.5 6.191,-31.22257 5.9368,-79.34689 -0.5207,-98.58335 -6.6497,-19.80918 -26.3409,-35.41665 -44.6834,-35.41665 h -4.8665 l 1.7435,2.75 c 0.9589,1.5125 3.4544,5.05425 5.5455,7.87056 5.4152,7.29334 9.337,21.51954 12.7857,46.37944 1.3046,9.40401 0.7115,53.37161 -0.8836,65.5 -0.5063,3.85 -1.4119,11.10898 -2.0123,16.13107 -0.6005,5.02208 -1.5082,10.22636 -2.0172,11.56506 -0.5089,1.3387 -1.2333,5.10472 -1.6097,8.36894 -0.3763,3.26421 -1.151,7.73493 -1.7215,9.93493 -0.5705,2.2 -2.2775,9.4 -3.7932,16 -1.5157,6.6 -3.538,14.7 -4.4939,18 -0.9559,3.3 -1.9754,7.08612 -2.2655,8.41359 -0.2901,1.32747 -2.4293,5.15247 -4.7538,8.5 -2.3245,3.34753 -4.5254,7.05827 -4.8908,8.2461 -0.3655,1.18784 -1.3221,2.70544 -2.1258,3.37245 -1.4392,1.19438 -2.0372,3.96786 -0.8556,3.96786 0.3331,0 3.3506,-0.7113 6.7056,-1.58067 z"
       style="fill:#ce3e01;fill-opacity:1" />
    <path
       id="path8137"
       d="m 748.25871,728.70634 c 10.4879,-7.53186 19.4944,-30.44417 24.8658,-63.25812 0.9003,-5.5 2.2411,-13.15 2.9796,-17 3.5588,-18.55311 4.086,-75.74014 0.9208,-99.87546 -3.0569,-23.30957 -3.6467,-25.23471 -9.6112,-31.37043 -16.3695,-16.83972 -26.6417,-15.1671 -39.0886,6.36475 -1.9455,3.36538 -3.8328,7.46462 -4.194,9.10942 -0.3613,1.64481 -1.9834,6.54132 -3.6047,10.88114 -1.6212,4.33982 -2.9559,8.79058 -2.9659,9.89058 -0.01,1.1 -0.7007,3.95974 -1.5349,6.35498 -1.9425,5.57753 -5.8815,28.81805 -8.013,47.27708 -3.0462,26.38081 0.7675,75.05988 7.4992,95.72143 4.8081,14.75754 8.5845,20.72262 17.062,26.95069 5.4174,3.97993 9.021,3.7396 15.6849,-1.04606 z"
       style="fill:#ce3e01;fill-opacity:1" />
    <path
       id="path8135"
       d="m -73.92859,726.43534 c 17.05,-0.14278 50.575,-0.53642 74.5,-0.87475 23.925,-0.33833 102,-0.85599 173.5,-1.15036 121.75574,-0.50126 134.53865,-0.79853 138.11047,-3.21175 4.15153,-2.80489 5.85788,-14.94414 3.4858,-24.79859 -0.65556,-2.72342 -2.20769,-9.45167 -3.44917,-14.95167 l -2.25725,-10 -16.44493,-1.17522 c -34.8616,-2.49135 -140.30104,-1.36099 -253.94492,2.7224 -14.025,0.50394 -36.3,1.29833 -49.5,1.76531 l -24,0.84905 -15.5,5.08199 c -18.21648,5.97264 -36.08678,11.41351 -44.5,13.54866 -3.3,0.83749 -9.825,2.64872 -14.5,4.02497 -4.675,1.37624 -10.525,2.80712 -13,3.17974 -2.475,0.37262 -8.775,1.77368 -14,3.11348 -18.35497,4.7066 -57.07184,7.70586 -77,5.96492 -10.56659,-0.9231 -26.43152,-4.08 -32.73831,-6.51447 -4.76322,-1.83864 -21.88783,-6.54511 -28.01169,-7.69864 l -3.25,-0.61219 v 4.90123 c 0,7.04825 1.94934,21.58281 3.07684,22.94136 0.67978,0.81909 12.98968,1.36588 42.19149,1.87411 22.67742,0.39468 49.78167,1.06366 60.23167,1.48664 10.45,0.42297 29.575,0.54952 42.5,0.28121 12.925,-0.26831 37.45,-0.60465 54.5,-0.74743 z"
       style="fill:#778787;fill-opacity:1" />
    <path
       id="path8133"
       d="m -186.47466,699.96173 c 5.80034,-0.54257 19.99607,-1.70094 31.54607,-2.57416 11.55,-0.87323 23.62385,-2.22931 26.83077,-3.01352 3.20692,-0.78421 7.40219,-1.42583 9.32281,-1.42583 1.92063,0 7.17178,-0.86687 11.66923,-1.92638 4.49746,-1.05951 9.97719,-2.22587 12.17719,-2.59192 5.88956,-0.97993 21.55308,-7.24104 24.90957,-9.95698 l 2.90956,-2.35432 -4.40956,-0.55153 c -4.96932,-0.62155 -110.11166,-1.87726 -169.38974,-2.02302 l -38.98018,-0.0959 0.32116,4.5 c 0.17663,2.475 0.75429,5.02513 1.28369,5.66695 2.33581,2.83186 29.5037,10.36386 47.8555,13.26741 7.425,1.17475 15.525,2.50813 18,2.96308 6.53267,1.2008 14.00058,1.2342 25.95393,0.11607 z"
       style="fill:#768686;fill-opacity:1" />
    <path
       id="path8129"
       d="m -53.92859,664.87749 c 15.45518,-1.11597 28.91461,-3.50043 40.82437,-7.2324 6.43745,-2.0172 6.78926,-2.28184 6.20513,-4.66766 -0.34059,-1.39106 -1.01053,-9.72921 -1.48877,-18.52921 -1.21332,-22.32626 -3.37121,-28.07714 -12.2314,-32.59727 -4.23132,-2.15866 -17.80698,-3.97827 -29.30933,-3.92848 -3.3,0.0143 -10.95,-0.26162 -17,-0.61312 -10.89028,-0.63271 -66.45384,1.01854 -92.5,2.74894 -26.00112,1.72741 -38.8014,3.74078 -41.05632,6.45779 -1.30732,1.57523 -0.7991,24.28002 0.9245,41.3021 1.85597,18.32936 4.19303,18.84362 83.63182,18.40306 25.85,-0.14336 53.75,-0.74805 62,-1.34375 z"
       style="fill:#e5d7a6;fill-opacity:1" />
    <path
       id="path8125"
       d="m 174.57141,662.45676 c 37.675,-0.31652 73.225,-0.9908 79,-1.4984 5.775,-0.5076 15.51848,-0.94253 21.65217,-0.9665 l 11.15218,-0.0436 1.09782,-3.14922 c 2.61779,-7.50938 -1.78815,-21.28075 -7.74011,-24.19281 -3.57238,-1.74783 -20.13786,-6.05057 -33.66206,-8.74344 -10.93449,-2.17722 -13.77443,-2.62696 -31,-4.90923 -4.95,-0.65584 -11.7,-1.5708 -15,-2.03324 -13.75711,-1.92783 -22.88427,-3.00616 -38.5,-4.5486 -9.075,-0.89639 -19.875,-2.03405 -24,-2.52815 -4.125,-0.4941 -14.09195,-1.17707 -22.14878,-1.51771 -16.99005,-0.71834 -21.28279,0.62769 -24.95443,7.82471 -4.15039,8.13543 -0.59298,33.65531 5.3828,38.61477 0.77631,0.64428 2.21402,2.95115 3.19491,5.12637 1.52554,3.38304 2.16246,3.89608 4.40447,3.54775 1.44157,-0.22397 33.44603,-0.66619 71.12103,-0.98271 z"
       style="fill:#efe7c3;fill-opacity:1" />
    <path
       id="path8121"
       d="m 267.07694,614.93932 c 0.43887,-0.71011 2.07865,-2.77978 1.63852,-4.09545 -0.65535,-1.95901 -3.77051,-3.16844 -4.96905,-3.16844 -1.37701,0 -3.06904,2.58879 -3.06904,4.3107 0,2.95966 5.04777,5.14046 6.39957,2.95319 z"
       style="fill:#e5d7a6;fill-opacity:1" />
    <path
       id="path8119"
       d="m 233.09046,608.44827 c -0.28548,-1.375 -0.75262,-3.625 -1.0381,-5 -1.0661,-5.13485 -11.48095,-0.5185 -11.48095,5.08889 0,2.30158 0.29616,2.41111 6.51905,2.41111 6.4254,0 6.5116,-0.0359 6,-2.5 z"
       style="fill:#e5d7a6;fill-opacity:1" />
    <path
       id="path8117"
       d="m 332.67942,608.49207 c 15.03346,-2.87673 20.68816,-6.17073 32.56787,-18.97158 7.44882,-8.0264 6.10803,-5.1051 18.85103,-41.07225 2.33836,-6.6 5.13476,-14.025 6.21425,-16.5 1.07948,-2.475 3.19833,-7.98885 4.70857,-12.25299 5.51525,-15.57233 16.10066,-32.10826 25.69956,-40.14641 4.99533,-4.18311 5.85071,-5.38927 5.85071,-8.25 0,-2.06848 -0.49341,-3.3506 -1.28945,-3.3506 -1.58839,0 -14.61256,6.68233 -16.81157,8.62554 -1.83037,1.61746 -10.29294,0.0697 -20.50023,-3.74931 -3.02032,-1.13004 -6.06066,-1.83621 -6.75632,-1.56926 -0.69566,0.26695 -2.05386,3.75441 -3.01823,7.74992 -1.93576,8.02012 -6.03324,16.94314 -7.78034,16.94314 -0.76713,0 -0.92366,-1.6619 -0.4945,-5.25 2.36032,-19.73369 2.80002,-31.54367 1.33516,-35.86136 -2.85561,-8.41695 -3.15163,-13.56828 -0.85049,-14.79982 1.11897,-0.59885 2.31729,-1.08882 2.66294,-1.08882 1.01983,0 6.50303,12.76034 6.50303,15.13365 0,5.86489 7.86421,11.43366 18.21218,12.89634 l 6.03789,0.85345 8.62496,-5.84283 c 19.3246,-13.09111 29.86855,-28.87545 37.43521,-56.04061 1.67464,-6.01215 2.16679,-11.17004 2.48084,-26 0.4855,-22.92612 -0.34734,-29.31366 -6.78006,-52 -1.16964,-4.125 -2.97366,-10.60718 -4.00894,-14.40485 -2.0198,-7.4092 -6.92317,-13.59223 -15.50208,-19.54774 -15.09149,-10.47658 -32.32152,-4.97882 -44.38045,14.16091 -4.31866,6.85452 -9.11955,18.63888 -9.11955,22.38506 0,1.60554 -0.95495,2.84908 -3,3.90662 -1.79648,0.929 -3,2.3434 -3,3.52568 0,1.68209 -0.70308,1.98125 -4.75,2.02116 -4.53287,0.0447 -4.90999,0.27236 -8.25,4.98014 -3.8228,5.38828 -5.27337,6.33842 -8.23956,5.39699 -3.61387,-1.147 -8.76044,-16.4272 -8.76044,-26.0098 0,-3.26418 -3.17235,-5.41417 -7.98871,-5.41417 -2.08768,0 -4.01129,-4.00716 -4.01129,-8.35613 0,-2.801 1.11036,-4.26951 7.85646,-10.39057 11.67985,-10.5977 13.12579,-15.42309 8.09509,-27.01511 -2.43673,-5.61484 -3.56459,-5.88922 -13.00062,-3.16263 -9.43372,2.72591 -11.47172,2.31034 -21.95093,-4.47607 -11.68498,-7.56728 -15.58278,-8.10762 -20.80612,-2.88428 l -2.63387,2.63387 -9.32656,-1.17796 c -17.15094,-2.16621 -23.58415,-8.43782 -31.36204,-30.57425 -0.96858,-2.75665 -2.27599,-4.28178 -4.45102,-5.19223 -1.69378,-0.709 -3.66138,-1.99009 -4.37244,-2.84686 -0.71106,-0.85678 -1.86806,-1.55778 -2.5711,-1.55778 -1.62724,0 -9.91574,3.9213 -14.47685,6.84902 -4.36621,2.80261 -9.18819,2.30293 -12.9978,-1.34691 -2.36611,-2.26688 -3.0316,-2.44271 -5.5939,-1.47801 -4.13679,1.5575 -9.88454,7.462 -11.99639,12.32354 -0.99207,2.2838 -2.61104,5.34041 -3.59769,6.79247 -2.81434,4.14188 -9.87455,21.7363 -11.38013,28.35989 -3.39959,14.95604 0.16188,35.99614 8.34399,49.29375 11.22164,18.23749 3.87456,37.80897 -29.92243,79.70869 -12.9247,16.02336 -17.74528,30.64594 -13.47344,40.86988 4.68857,11.22134 15.0258,17.8457 31.35194,20.09112 7.30625,1.00486 9.26585,0.16751 9.26585,-3.9594 0,-6.09764 4.44972,-7.9768 12,-5.06773 1.925,0.7417 7.01616,2.74694 11.31369,4.45611 7.54558,3.00095 14.99448,4.03599 16.10574,2.23794 0.77508,-1.2541 -3.2031,-12.51358 -5.76385,-16.31348 -1.36941,-2.03206 -5.05935,-4.72938 -9.94998,-7.27336 -8.1422,-4.23537 -14.7056,-8.96017 -14.7056,-10.58615 0,-4.5575 21.07106,3.76439 30.18826,11.92267 6.21513,5.56144 7.81762,8.71385 7.78788,15.3203 -0.0737,16.37738 -4.25357,18.95519 -20.73597,12.78833 -5.73036,-2.144 -9.24017,-2.54546 -9.24017,-1.05689 0,4.56235 11.12515,27.86828 18.76866,39.31822 3.15837,4.73123 4.51591,4.70072 9.42848,-0.21185 4.89377,-4.89376 4.58018,-6.68761 -2.29566,-13.13222 -2.69582,-2.52674 -4.90148,-5.07743 -4.90148,-5.66821 0,-4.43814 4.36216,-5.91523 5.38881,-1.82473 0.45693,1.82059 2.68406,3.41902 9.0715,6.51072 10.6466,5.15325 18.54738,12.56335 18.52438,17.37391 -0.036,7.52785 -3.87045,6.311 -8.79068,-2.78968 -3.58292,-6.62713 -5.31883,-6.80917 -7.54229,-0.79094 -1.82381,4.93653 -4.65197,7.64697 -13.90384,13.32512 -6.55403,4.02241 -8.73949,7.93561 -8.74414,15.65699 -0.004,5.83612 0.18656,6.33981 3.24626,8.60212 4.50363,3.32992 6.10382,3.82138 15.35992,4.71744 7.92505,0.76719 14.39008,3.02948 14.39008,5.03546 0,1.6809 7.08377,16.11254 10.69532,21.78939 10.60327,16.66686 28.59666,28.56999 49.30468,32.61639 9.06507,1.77135 23.09803,1.80802 32.10801,0.0839 z"
       style="fill:#eec79e;fill-opacity:1" />
    <path
       id="path8115"
       d="m 259.57141,467.30657 c -16.37436,-9.30522 -29.96828,-25.56868 -41.61243,-49.78414 -5.46875,-11.37296 -16.21457,-42.39129 -18.90637,-54.57416 -6.52012,-29.50959 -6.47758,-71.43739 0.0854,-84.12873 1.48455,-2.8708 1.46548,-2.91486 -1.51985,-3.51193 -2.66119,-0.53223 -2.95053,-0.9193 -2.41602,-3.23199 2.00458,-8.67328 9.04477,-10.83205 23.06912,-7.0738 12.29644,3.2952 21.19688,7.89084 26.18553,13.5206 20.28279,22.88939 34.5146,58.92852 32.03235,81.11533 -0.86918,31.67568 -20.3674,40.98062 -42.65691,35.11264 3.1286,1.41455 16.06007,11.14803 29.09018,7.98074 13.03011,-3.16728 14.27952,-17.02198 15.5641,-22.78286 3.16132,-14.17748 3.34032,-16.23692 2.70777,-31.15436 -0.35789,-8.4401 -0.92647,-17.36057 -1.26352,-19.82327 -0.56455,-4.12505 -0.47952,-4.36702 1.07987,-3.07284 7.72984,6.4152 10.24723,36.82062 4.68205,56.55047 -1.55138,5.5 -3.63267,11.89993 -4.90029,14.07162 -6.65873,11.40772 -13.31712,13.90122 -25.36085,15.13263 7.01865,1.94436 20.53499,1.85206 26.94645,-2.8233 17.08724,-12.46035 20.23378,-31.44063 12.15021,-68.7254 -2.40312,-11.08417 -11.1211,-37.06731 -13.99982,-41.72517 -1.07633,-1.74155 -1.95697,-4.09928 -1.95697,-5.2394 0,-4.87909 5.15221,-3.75376 7.31046,1.59674 0.82358,2.04175 2.94405,6.82543 4.71214,10.63038 8.69819,18.71862 14.58454,40.10291 14.58454,69.933 0,15.89404 -1.75478,19.74929 -3.85714,23.15359 -7.64362,12.37711 -16.13647,19.14373 -27.71369,22.0807 -10.16825,2.57953 -23.0806,0.17061 -27.20742,-5.0758 -1.93446,-2.45926 -7.82889,-3.66255 -7.82889,-1.59818 0,2.00382 13.47968,13.09389 20.27214,16.6784 9.99525,5.27468 21.99226,6.05145 31.10229,2.0138 3.23094,-1.43199 6.49344,-2.60361 7.25,-2.60361 1.99355,0 1.69074,2.95608 -0.37443,3.6552 -0.9625,0.32584 -4.48424,1.88607 -7.82609,3.46718 -18.37495,8.69366 -32.3503,4.74804 -51.42391,-14.51838 -5.225,-5.27781 -10.225,-9.60001 -10.225,-9.60001 0,0 0.67964,6.86373 4.84762,14.99601 4.49231,8.7651 14.60349,21.45379 27.69108,34.75 7.43182,7.55028 7.33615,8.95557 -0.3137,4.6083 z"
       style="fill:#000000" />
    <path
       id="path8113"
       d="m 250.99535,384.89084 c 6.10398,-2.28379 10.1061,-6.50729 13.84712,-14.61307 3.85001,-8.34191 3.10466,-28.51004 -1.5674,-42.41223 -9.6301,-28.65531 -29.8516,-50.60463 -48.40794,-52.54415 -5.98682,-0.62575 -6.13614,-0.5815 -7.57472,2.24427 -4.68984,17.48377 -9.4621,38.52524 -5.19418,56.41962 5.44866,-9.27448 11.90338,-12.64721 19.97318,-12.13245 6.92121,0.47561 15.46787,6.94576 19.87779,15.04824 3.23936,5.95176 3.99701,16.5987 1.51032,21.22364 -3.97107,8.02342 -13.24941,11.70179 -21.11834,10.97798 1.24897,3.35311 6.33755,9.74154 14.48657,14.98607 5.17525,3.33068 7.1157,3.44054 14.1676,0.80208 z"
       style="fill:#ffffff" />
    <path
       id="path8111"
       d="m 228.94988,362.56104 c 12.46092,-3.4445 13.07126,-13.54024 6.12749,-25.2015 -2.95933,-4.96985 -6.32389,-11.04253 -13.79815,-10.26133 -7.45324,0.77902 -12.58137,6.21578 -13.06495,11.42332 -0.84584,9.10851 11.07297,26.7105 20.73561,24.03951 z"
       style="fill:#63c5ed;fill-opacity:1" />
    <path
       id="path8109"
       d="m 216.74572,349.63382 c -4.81491,-5.12525 -2.07855,-14.68555 4.20332,-14.68555 2.86555,0 6.55071,5.89671 6.60041,10.56144 0.0589,5.52687 -6.96649,8.20866 -10.80373,4.12411 z"
       style="fill:#000000" />
    <path
       id="path8107"
       d="m 392.77462,437.72884 c -3.6167,-1.77616 -2.53265,-5.11963 1.8917,-5.83448 5.73327,-0.92633 9.88756,-4.00959 12.76116,-9.47114 4.53744,-8.62386 7.02444,-10.94338 13.89393,-12.95835 3.4375,-1.00829 6.28836,-2.32451 6.33525,-2.92493 0.76125,-9.74773 -3.23582,-32.39895 -6.93778,-39.31612 -1.5399,-2.87733 -8.22593,-23.79653 -9.0372,-28.27555 -0.51162,-2.82462 -1.13623,-3.55854 -3.23689,-3.80337 -5.7837,-0.6741 -8.36567,11.67519 -5.49947,26.30337 3.70269,18.89735 5.4333,23.86648 8.46942,24.3184 2.27063,0.33798 5.15667,3.70171 5.15667,6.01019 0,3.56706 -24.25978,18.54969 -32.05351,19.79596 -4.67405,0.74741 -4.91126,-0.0719 -2.13191,-7.36382 2.86085,-7.50572 8.67637,-14.83589 13.69955,-17.26757 7.46483,-3.61366 7.14477,-12.06841 -0.78241,-20.66838 -10.6481,-11.55182 -6.2663,-33.72858 8.98879,-45.49322 5.46015,-4.21084 5.81405,-4.32873 12.69809,-4.23001 10.63088,0.15244 19.70998,5.31141 22.55354,12.81548 1.95792,5.16689 -0.85897,5.69547 -11.47214,2.1527 -3.85,-1.28516 -7.32621,-2.14452 -7.72491,-1.90969 -1.15648,0.68118 0.20363,9.12753 2.95328,18.33996 5.54997,18.59461 7.04391,24.09177 8.28884,30.5 0.53425,2.75 1.44977,7.25 2.03449,10 1.43329,6.7409 1.36366,19.08302 -0.12799,22.68417 -0.89565,2.1623 -2.83449,3.66231 -7.4228,5.74275 -4.00947,1.81798 -7.23656,4.1487 -9.1057,6.57646 -6.21646,8.07437 -8.63749,10.43451 -12.68916,12.37002 -5.72675,2.73571 -8.78369,3.24255 -11.50284,1.90717 z"
       style="fill:#000000" />
    <path
       id="path8105"
       d="m 201.57141,605.09744 c 0,-5.21996 -1.95787,-9.14922 -4.55887,-9.14922 -2.16944,0 -6.44113,3.38676 -6.44113,5.10677 0,0.40131 -0.2636,1.41659 -0.58578,2.25617 -0.43737,1.13977 0.63939,1.9029 4.25,3.01214 6.81779,2.09452 7.33578,2.00796 7.33578,-1.22586 z"
       style="fill:#e5d7a6;fill-opacity:1" />
    <path
       id="path8103"
       d="m 169.90149,600.92076 c -0.45887,-6.67705 -1.82741,-9.46404 -4.81633,-9.80833 -3.6622,-0.42184 -5.51375,1.90449 -5.51375,6.92758 0,3.44092 0.27154,3.78243 3.75,4.71629 5.37285,1.44244 6.77841,1.05035 6.58008,-1.83554 z"
       style="fill:#e5d7a6;fill-opacity:1" />
    <path
       id="path8101"
       d="m 136.57141,597.63605 c 0,-0.72169 -0.91348,-3.20287 -2.02996,-5.51371 -1.11649,-2.31085 -2.45535,-5.32038 -2.97525,-6.68783 -0.71715,-1.88625 -1.66972,-2.48629 -3.94699,-2.48629 -3.79353,0 -6.07669,3.25046 -6.34877,9.03856 -0.19362,4.11898 -0.0903,4.26824 3.80097,5.49288 5.51835,1.7367 11.5,1.81804 11.5,0.15639 z"
       style="fill:#e5d7a6;fill-opacity:1" />
    <path
       id="path8099"
       d="m -75.10205,588.42247 c 13.3864,-2.02407 13.43141,-2.05695 13.83766,-10.10687 0.31001,-6.14303 0.14729,-6.77749 -2.11859,-8.26074 -3.23208,-2.11571 -15.8454,-2.62571 -27.54561,-1.11376 -4.95,0.63965 -12.15,1.55573 -16,2.03572 -3.85,0.48 -8.8,1.29954 -11,1.8212 -2.2,0.52167 -6.475,1.43559 -9.5,2.03094 -15.03177,2.9584 -17,4.09016 -17,9.77521 0,4.9433 2.4089,5.76937 18.5,6.34405 16.42338,0.58655 37.00843,-0.43639 50.82654,-2.52575 z"
       style="fill:#e5d7a6;fill-opacity:1" />
    <path
       id="path8097"
       d="m 50.07141,584.39891 c 15.74106,-1.58071 21.7504,-2.59305 29,-4.88536 2.75,-0.86955 6.575,-2.06922 8.5,-2.66595 7.31036,-2.2661 8.82363,-3.26754 9.41642,-6.2315 1.15254,-5.7627 0.54875,-18.43128 -1.32082,-27.71313 -1.04742,-5.20011 -2.65413,-13.72975 -3.57046,-18.95475 -0.91634,-5.225 -2.53505,-14 -3.59713,-19.5 -3.56628,-18.4679 -3.83203,-19.9725 -4.94558,-28 -0.61036,-4.4 -1.77139,-11.6 -2.58008,-16 -3.10525,-16.89543 -5.49359,-29.4734 -7.97504,-42 -1.41639,-7.15 -3.68988,-19.525 -5.05222,-27.5 -4.16342,-24.37229 -4.37792,-25.53851 -8.36834,-45.5 -3.4034,-17.02499 -4.98028,-25.59627 -5.51917,-30 -0.33653,-2.75 -2.81634,-16.475 -5.51069,-30.5 -8.99154,-46.80401 -10.96553,-57.45432 -11.86797,-64.0314 -1.8163,-13.23742 -11.88824,-33.26768 -18.6993,-37.18765 -3.3953,-1.9541 -26.88969,-4.38087 -31.40522,-3.24389 -1.37742,0.34682 -4.3044,0.82677 -6.5044,1.06655 -4.36767,0.47605 -17.39056,2.86103 -24.45747,4.47909 -7.22818,1.65499 -24.94008,8.92493 -27.85192,11.43196 l -2.69061,2.31656 0.0528,14.83439 c 0.0508,14.26442 0.23484,15.56441 4.78968,33.83439 5.72889,22.97923 6.16581,24.85013 8.17379,35 2.22859,11.26498 3.44645,16.73892 8.00939,36 4.74443,20.02715 5.37327,22.92622 6.94115,32 0.85532,4.95 1.98457,10.8 2.50945,13 0.52487,2.2 2.29414,9.625 3.9317,16.5 2.88849,12.12679 7.27058,33.3589 8.56517,41.5 0.6495,4.08435 1.22007,6.64207 6.35775,28.5 1.61596,6.875 3.63841,15.65 4.49435,19.5 2.24456,10.09611 5.24367,23.18224 8.59432,37.5 1.6089,6.875 3.41066,14.975 4.00393,18 2.01616,10.28017 2.97811,14.48989 5.02716,22 1.12546,4.125 2.78074,10.63729 3.6784,14.47175 2.43767,10.41278 5.00007,15.54311 10.16594,20.3538 l 4.6563,4.33615 10.52435,-0.65256 c 5.78841,-0.35891 16.82437,-1.28521 24.52437,-2.05845 z"
       style="fill:#efe7c3;fill-opacity:1" />
    <path
       id="path8093"
       d="m -158.92859,567.34883 c 31.83028,-3.00679 35.12368,-3.38685 42.99719,-4.96188 4.39846,-0.87988 8.20372,-1.80631 8.45615,-2.05873 0.96468,-0.96469 -9.64604,-19.09505 -13.86858,-23.69701 l -2.58476,-2.81701 -28,0.45814 c -26.26148,0.4297 -50.41182,2.25128 -53.25,4.01648 -1.4861,0.92428 -1.73777,13.7742 -0.32164,16.42297 0.51059,0.95504 1.84816,3.76532 2.97236,6.24507 3.49794,7.71569 7.95127,9.79479 18.75275,8.75499 4.86559,-0.46839 16.04653,-1.53175 24.84653,-2.36302 z"
       style="fill:#efe7c3;fill-opacity:1" />
    <path
       id="path8091"
       d="m -23.65932,555.76164 11.26927,-2.09104 -0.57061,-3.61119 c -0.65196,-4.126 -1.07636,-6.03165 -5.92643,-26.61119 -3.77584,-16.0214 -4.75037,-20.54211 -6.46707,-30 -1.72657,-9.51222 -7.80319,-39.87039 -10.60872,-53 -1.41028,-6.6 -2.98607,-14.25 -3.50174,-17 -0.51568,-2.75 -1.84484,-9.275 -2.95368,-14.5 -3.7891,-17.85468 -4.1225,-19.50969 -5.53995,-27.5 -1.23113,-6.94006 -3.85144,-19.7194 -6.45884,-31.5 -0.99846,-4.51119 -5.25255,-25.40368 -8.04291,-39.5 -1.19759,-6.05 -2.53507,-12.575 -2.97216,-14.5 -0.4371,-1.925 -1.28073,-5.75 -1.87474,-8.5 -0.59401,-2.75 -2.02037,-9.275 -3.1697,-14.5 -1.14932,-5.225 -2.71078,-13.20487 -3.46991,-17.73305 -0.75913,-4.52818 -2.0341,-11.05318 -2.83328,-14.5 -0.79918,-3.44682 -1.98799,-8.89297 -2.6418,-12.10255 -1.14623,-5.6269 -1.28385,-5.81204 -3.84787,-5.17691 -3.61582,0.89568 -14.59479,8.19347 -28.60289,19.01251 -6.40908,4.95 -13.09363,10.0391 -14.85456,11.3091 -1.76092,1.27001 -4.55168,3.56295 -6.20168,5.09543 -1.65,1.53248 -8.4,6.65554 -15,11.38458 -6.6,4.72904 -15.825,11.55492 -20.5,15.16862 -7.70607,5.95668 -14.83461,11.25299 -29.15572,21.66192 -2.73906,1.99081 -6.41204,4.97366 -8.16219,6.62856 -1.75015,1.65489 -5.88209,4.82946 -9.18209,7.0546 -3.3,2.22515 -7.35,5.48081 -9,7.23481 -1.65,1.754 -4.62283,4.2279 -6.60629,5.49756 -1.98346,1.26966 -7.00066,5.38115 -11.14932,9.13665 -4.14867,3.75549 -12.56272,11.28218 -18.69788,16.72597 -6.13516,5.4438 -12.80009,11.9688 -14.81095,14.5 -2.01086,2.53121 -6.37398,7.55703 -9.69583,11.1685 -7.53225,8.18894 -15.62786,19.2007 -18.98165,25.81909 -2.86606,5.65589 -3.33765,13.06753 -1.50255,23.61461 0.57417,3.3 1.50567,8.925 2.07,12.5 0.56433,3.575 1.38373,8.75 1.82088,11.5 0.43715,2.75 1.98006,9.725 3.42868,15.5 1.44862,5.775 3.32574,13.425 4.17138,17 2.8279,11.95523 13.51233,37.87528 17.83321,43.26276 l 2.2158,2.76277 8.95226,-1.00004 c 14.78702,-1.65181 30.52022,-3.94946 31.59576,-4.61418 0.55553,-0.34333 3.788,-1.00205 7.18327,-1.46382 3.39528,-0.46177 8.64823,-1.31198 11.67323,-1.88935 6.16967,-1.17758 20.12317,-3.04866 46,-6.16834 25.80006,-3.11042 43.99604,-1.77894 54.8147,4.01103 1.08396,0.58012 3.65641,4.32725 5.71656,8.32696 8.60297,16.70239 14.99959,21.84528 29.96874,24.09495 7.75676,1.16575 43.32705,-0.47897 54.26927,-2.50932 z"
       style="fill:#efe7c3;fill-opacity:1" />
    <path
       id="path8089"
       d="m -309.92859,513.03425 c 7.40084,-2.32902 14.5,-5.14927 14.5,-5.76035 0,-0.25144 -0.45041,-1.29877 -1.00091,-2.32739 -1.2513,-2.33808 -10.31374,-36.87021 -12.95226,-49.35421 -1.23728,-5.85409 -1.23865,-5.85572 -4.39225,-5.23653 -3.60556,0.70794 -5.65458,2.9635 -5.65458,6.22456 0,3.25483 -2.09917,4.10417 -3.80266,1.53858 -1.47945,-2.22817 -8.45249,-3.1849 -9.60628,-1.31802 -0.64736,1.04745 0.86051,13.35778 2.71278,22.14733 1.70942,8.11163 12.3204,35.98444 13.69616,35.97693 0.275,-0.002 3.2,-0.85241 6.5,-1.8909 z"
       style="fill:#eee6c2;fill-opacity:1" />
    <path
       id="path8087"
       d="m -311.17859,502.71794 c -2.54076,-1.21431 -2.63915,-1.61599 -1.27475,-5.20462 1.48087,-3.89498 4.7884,-3.37501 6.63436,1.04299 0.82915,1.98444 1.36869,3.72854 1.19897,3.87577 -1.19033,1.03258 -4.67809,1.1846 -6.55858,0.28586 z"
       style="fill:#000000" />
    <path
       id="path8085"
       d="m -318.82697,488.06051 c -2.93907,-3.24764 -1.72226,-5.61229 2.88799,-5.61229 3.41444,0 4.09498,0.37749 4.92249,2.73049 1.12599,3.20174 1.03225,3.33388 -2.97283,4.19058 -2.33251,0.49893 -3.48349,0.18755 -4.83765,-1.30878 z"
       style="fill:#000000" />
    <path
       id="path8083"
       d="m -321.3132,470.36779 c -2.8985,-3.68485 -2.65736,-5.14162 0.98345,-5.94128 3.78224,-0.83072 4.74539,0.0232 5.11538,4.53532 0.37943,4.62722 -2.95952,5.39695 -6.09883,1.40596 z"
       style="fill:#000000" />
    <path
       id="path8081"
       d="m 478.57141,376.6841 c 0,-0.69526 -0.91549,-3.73276 -2.03441,-6.75 -2.13343,-5.75288 -5.96559,-19.22194 -5.96559,-20.9675 0,-1.63278 4.5924,-1.17827 9.22325,0.91282 5.8812,2.6557 16.50631,6.63647 21.02675,7.87781 4.11517,1.13005 4.61682,0.41515 2.81522,-4.01196 -0.51413,-1.26338 -1.88922,-5.39381 -3.05576,-9.17874 -9.41304,-30.54141 -37.11444,-64.73201 -67.726,-83.59117 -7.68829,-4.7366 -9.90635,-8.36675 -7.14508,-11.69387 1.35794,-1.63623 4.4588,-1.60225 25.47558,0.27916 4.52762,0.40531 7.34756,0.25885 7.75651,-0.40285 1.03127,-1.66862 -13.19238,-12.83306 -21.37047,-16.77414 -24.84223,-11.97163 -30.31519,-15.02716 -32.12531,-17.93544 -5.64539,-9.07029 1.19892,-13.99688 22.88084,-16.46982 7.41237,-0.84542 14.55274,-3.10193 15.70253,-4.96232 0.66728,-1.07968 -4.54778,-6.55246 -8.95806,-9.40077 -6.84535,-4.42095 -16.8981,-7.6663 -23.77283,-7.67464 -5.5053,-0.007 -11.36504,-0.66846 -22.49855,-2.54091 -5.30702,-0.89255 -9.80344,-5.66388 -12.24135,-12.9898 -4.30158,-12.92624 -16.96909,-28.31809 -30.29407,-36.80926 -5.53264,-3.5256 -8.13737,-4.0245 -7.15505,-1.37045 0.24794,0.66988 0.85815,3.91797 1.35603,7.21797 0.49788,3.3 1.58122,8.7 2.40742,12 1.47537,5.8929 3.6984,18.13406 3.6984,20.3653 0,0.62408 -1.30309,1.1347 -2.89575,1.1347 -2.3783,0 -3.46594,-0.88854 -6.08652,-4.97237 -5.19471,-8.09526 -13.23238,-14.02763 -19.0058,-14.02763 -1.9662,0 -2.02646,0.38806 -1.43651,9.25 0.46977,7.05643 0.29044,9.67791 -0.75619,11.05443 -1.91079,2.51304 -4.49056,1.26013 -6.82427,-3.3143 -4.9861,-9.77358 -22.20239,-20.24095 -39.49496,-24.01264 -2.2,-0.47984 -6.925,-1.56673 -10.5,-2.41531 -7.92783,-1.88179 -34.93453,-3.25783 -37.35494,-1.9033 -3.24479,1.81588 2.90026,8.36694 12.48546,13.31039 4.60322,2.37405 8.48511,4.4053 8.62642,4.51387 0.14132,0.10858 -0.0324,1.64402 -0.38599,3.4121 l -0.64294,3.21469 -5.614,-0.68737 c -5.27282,-0.6456 -8.13341,-1.51398 -26.36401,-8.00322 -7.72184,-2.74862 -14.07398,-2.85615 -33.75,-0.57133 -11.63394,1.35096 -43.63915,9.63441 -52.04036,13.46887 -9.03376,4.12317 -17.54271,12.68312 -12.60755,12.68312 1.23717,0 17.87875,-3.87328 25.23433,-5.87321 3.54962,-0.96512 6.41358,0.55131 6.41358,3.39591 0,3.12528 -6.11409,11.67133 -14.65005,20.4773 -4.53165,4.675 -9.24853,9.85 -10.48195,11.5 -1.23341,1.65 -4.32693,5.25 -6.87448,8 -2.54755,2.75 -6.77567,9.275 -9.39581,14.5 -4.74083,9.454 -4.76229,9.54213 -4.43081,18.20115 0.43137,11.26804 1.05724,11.81058 8.00786,6.94165 3.05062,-2.13696 7.97178,-5.22368 10.93591,-6.85937 5.76667,-3.18221 18.22036,-11.74 26.38933,-18.13392 2.75,-2.15245 8.15,-6.06483 12,-8.69418 3.85,-2.62935 8.35,-5.99042 10,-7.46905 5.29788,-4.74764 16.19741,-11.98628 18.04825,-11.98628 5.09952,0 6.35788,4.23753 3.86041,13 -2.20036,7.72004 -3.21344,12.86189 -2.64596,13.42937 0.58269,0.58268 6.16539,-3.45034 11.96496,-8.64365 5.38228,-4.81965 8.57881,-4.97141 11.2833,-0.53572 1.08986,1.7875 1.98325,4.23594 1.9853,5.44098 0.002,1.20504 0.43586,2.45805 0.964,2.78446 1.8598,1.14942 13.45615,-5.74716 19.46278,-11.5749 6.84093,-6.63718 9.48179,-7.31319 12.30762,-3.15054 2.88272,4.24644 4.00124,7.35591 6.74978,18.76419 4.2157,17.498 9.26091,25.2058 18.91099,28.8912 4.69004,1.79114 4.90632,1.78981 8.4032,-0.0517 3.29741,-1.73645 3.76749,-2.5663 5.78127,-10.20589 1.20561,-4.57366 2.68828,-8.81201 3.29482,-9.41855 1.46489,-1.46489 5.04819,1.92278 10.33498,9.77072 8.37504,12.43228 13.85795,16.5 22.2405,16.5 6.14303,0 12.23038,-2.40564 13.11139,-5.18144 1.53791,-4.84553 6.78591,-4.26867 12.14119,1.33456 10.34858,10.82773 10.64931,27.97391 0.74304,42.36439 l -3.454,5.0175 2.55364,13.9825 c 1.4045,7.69037 2.81612,15.44499 3.13693,17.23249 0.32081,1.7875 1.13912,3.25 1.81846,3.25 1.34093,0 5.50315,-10.41456 5.50315,-13.76977 0,-1.13543 0.88401,-4.12673 1.96446,-6.64732 2.09159,-4.87947 4.0985,-5.7409 7.08279,-3.04015 1.5624,1.41395 1.88208,1.24218 3.82874,-2.05716 1.16821,-1.97995 2.12401,-3.83544 2.12401,-4.12329 0,-2.27319 8.59869,-12.52316 14.94896,-17.81974 16.52669,-13.78445 30.271,-17.32485 43.26924,-11.14574 17.75815,8.44189 31.29071,38.39714 35.86821,79.39672 l 1.14925,10.29355 5.63217,2.90835 c 6.10463,3.15235 9.13217,3.72935 9.13217,1.74046 z"
       style="fill:#90796b;fill-opacity:1" />
    <path
       id="path8079"
       d="m -69.42859,185.50556 c 11.94251,-1.97788 29.23948,-5.29083 37.5,-7.18252 12.41798,-2.84375 13.83284,-3.15037 25,-5.41785 6.05,-1.22844 12.93748,-2.4436 15.30552,-2.70036 4.14395,-0.44931 4.29405,-0.58485 4,-3.61172 -0.47428,-4.88207 -0.52842,-4.88051 -32.80552,0.94373 -7.425,1.3398 -15.75,2.91655 -18.5,3.50388 -2.75,0.58733 -9.95,2.12379 -16,3.41435 -34.3357,7.32434 -46.92362,12.51584 -30.25,12.47569 3.9875,-0.01 11.075,-0.65094 15.75,-1.4252 z"
       style="fill:#858585;fill-opacity:1" />
    <path
       id="path8077"
       d="m -73.42859,171.89085 c 7.71802,-1.045 16.97337,-2.58662 23.19861,-3.86406 2.91577,-0.59833 8.45139,-1.72112 12.30139,-2.49508 3.85,-0.77396 10.6,-2.38313 15,-3.57593 4.4,-1.19279 10.025,-2.57581 12.5,-3.07337 2.475,-0.49756 7.425,-1.60488 11,-2.46071 3.575,-0.85583 8.43648,-1.8237 10.80329,-2.15082 3.92822,-0.54294 4.27686,-0.82261 4,-3.20872 -0.26738,-2.30446 -0.80819,-2.65043 -4.56787,-2.92215 -8.62297,-0.6232 -42.48329,7.11892 -82.73542,18.91735 -3.85,1.12848 -7.7875,2.2709 -8.75,2.53871 -0.9625,0.26781 -1.75,1.40475 -1.75,2.52653 0,1.5666 0.40584,1.86258 1.75,1.27627 0.9625,-0.41983 4.225,-1.09844 7.25,-1.50802 z"
       style="fill:#6f8574;fill-opacity:1" />
    <path
       id="path8075"
       d="m -77.24433,161.81669 c 0.92634,-0.47766 2.72634,-0.87502 4,-0.88302 1.27366,-0.008 4.3302,-0.71592 6.79233,-1.57315 2.46212,-0.85722 9.43712,-2.60588 15.5,-3.88591 6.06287,-1.28004 15.8054,-3.94712 21.65006,-5.92686 5.84466,-1.97974 11.24466,-3.59178 12,-3.58231 2.23686,0.028 15.87335,-5.40518 15.87335,-6.32446 0,-1.72223 -24.44196,0.71774 -38.5,3.84334 -3.85,0.856 -9.65716,1.9888 -12.9048,2.51736 -3.24764,0.52855 -8.16681,1.63275 -10.9315,2.45377 -2.76469,0.82102 -6.15058,1.49277 -7.5242,1.49277 -1.37363,0 -3.87945,0.40404 -5.5685,0.89787 -23.42172,6.84782 -22.571,6.48888 -22.571,9.52319 0,2.17055 0.50607,2.51066 4.25,2.85625 5.51122,0.50873 15.77981,-0.29793 17.93426,-1.40884 z"
       style="fill:#e6e6c2;fill-opacity:1" />
    <path
       id="path8073"
       d="m -68.42859,143.49039 c 21.33001,-2.68696 35.5683,-5.49444 54,-10.64762 3.575,-0.9995 10.1,-2.7048 14.5,-3.78955 15.92347,-3.92567 20.97401,-5.96432 19.19161,-7.74672 -0.62075,-0.62075 -14.12504,0.81059 -34.19161,3.62403 -8.25,1.1567 -19.95,2.77203 -26,3.58963 -22.00741,2.97409 -25.07792,3.42491 -29.5,4.33124 -2.475,0.50726 -6.3,1.249 -8.5,1.64832 -5.56742,1.01052 -6.5,2.04174 -6.5,7.18752 0,4.38661 0.0658,4.47927 2.75,3.87297 1.5125,-0.34164 7.925,-1.27306 14.25,-2.06982 z"
       style="fill:#82b6b4;fill-opacity:1" />
    <path
       id="path8071"
       d="m -48.42859,122.9105 c 9.625,-1.12186 22,-2.44642 27.5,-2.94347 5.5,-0.49704 10.9,-1.13663 12,-1.42131 1.1,-0.28468 6.05,-1.25383 11,-2.15366 14.00275,-2.54548 28.5,-6.84009 28.5,-8.44272 0,-3.6461 -13.81938,-3.60618 -25,0.0722 -3.575,1.17616 -9.65,2.53215 -13.5,3.01329 -3.85,0.48114 -9.25,1.31577 -12,1.85472 -2.75,0.53896 -14.45,1.8936 -26,3.01033 -26.87969,2.59889 -26.5,2.51348 -26.5,5.9611 0,3.54677 0.88902,4.36256 3.98779,3.65934 1.38171,-0.31353 10.38721,-1.48796 20.01221,-2.60982 z"
       style="fill:#e5d8a4;fill-opacity:1" />
    <path
       id="path8069"
       d="m -83.92859,112.40622 c 6.05,-0.74241 17.75193,-1.83263 26.00429,-2.42269 22.63492,-1.61845 52.83203,-5.97163 54.75362,-7.89322 0.4219,-0.4219 0.46829,-2.261097 0.10309,-4.087107 l -0.66401,-3.32002 -10.09849,0.6937 c -9.08052,0.62377 -23.07075,2.11824 -43.0985,4.60389 -3.85,0.477817 -9.025,1.341287 -11.5,1.918807 -2.475,0.57752 -8.325,1.69007 -13,2.47234 -11.96932,2.00282 -17.42241,3.81565 -17.82904,5.92709 -0.56942,2.95677 0.65976,4.93151 2.58747,4.15689 0.95786,-0.3849 6.69157,-1.30726 12.74157,-2.04968 z"
       style="fill:#b8b8b8;fill-opacity:1" />
    <path
       id="path8067"
       d="m -61.47662,96.441573 c 5.19858,-0.89373 9.73146,-1.7977 10.07307,-2.00882 1.75895,-1.0871 20.76245,-3.86903 36.97496,-5.41278 5.225,-0.49753 12.2,-1.60118 15.5,-2.45255 3.3,-0.85138 7.47662,-1.56399 9.28138,-1.58358 3.06906,-0.0333 5.35676,-2.23082 3.87008,-3.71749 -1.06799,-1.06799 -26.00812,1.97789 -31.55801,3.85411 -2.9736,1.00527 -6.74672,1.82776 -8.3847,1.82776 -1.63799,0 -5.73004,0.43019 -9.09345,0.95598 -3.36342,0.52579 -10.6153,1.45814 -16.1153,2.07188 -9.56168,1.06697 -19.11287,2.57571 -22.65762,3.57908 -3.71894,1.05266 -3.21687,5.94335 0.51671,5.03324 1.1775,-0.28703 6.39429,-1.2531 11.59288,-2.14683 z"
       style="fill:#e1c392;fill-opacity:1" />
    <path
       id="path8065"
       d="m -19.42859,78.954283 c 3.575,-0.53702 11.9,-1.476528 18.5,-2.087811 6.6,-0.611282 12.33968,-1.320865 12.75485,-1.576851 0.41517,-0.255986 4.46517,-0.855035 9,-1.331221 10.43524,-1.095766 23.11766,-4.990403 23.5493,-7.231739 0.28627,-1.486445 -2.3567,-1.645787 -28.41309,-1.712998 -28.45801,-0.07341 -34.6171,0.42051 -46.39106,3.720241 -9.23195,2.587316 -11,3.804593 -11,7.573332 0,1.819207 0.20343,3.511087 0.45206,3.759717 0.68713,0.68713 14.21742,-0.0115 21.54794,-1.11267 z"
       style="fill:#848484;fill-opacity:1" />
    <path
       id="path8063"
       d="m -81.42859,69.967988 c 31.07729,-3.0642 58.80385,-7.070448 63.5,-9.175204 2.72094,-1.21949 1.69772,-1.375562 -11,-1.677831 -30.25202,-0.720148 -66.5,4.687063 -66.5,9.919988 0,2.185676 0.77316,2.237205 14,0.933047 z"
       style="fill:#e5d6a4;fill-opacity:1" />
    <path
       id="path8061"
       d="m -40.42859,52.849836 c 10.725,-1.035474 21.975,-2.121423 25,-2.413221 3.025,-0.291797 6.625,-0.793488 8,-1.114868 2.65382,-0.620281 12.21992,-2.120801 20.48958,-3.213957 3.63073,-0.479942 5.08048,-1.136159 5.32333,-2.409567 0.30371,-1.592554 -0.81996,-1.751061 -12.48959,-1.761793 -22.64642,-0.02083 -73.18143,3.866749 -78.99464,6.076928 -2.00574,0.762583 -2.42444,1.448732 -1.95431,3.202686 0.32908,1.227698 0.60447,2.768497 0.61198,3.423997 0.0155,1.350106 3.25204,1.179759 34.01365,-1.790205 z"
       style="fill:#778586;fill-opacity:1" />
    <path
       id="path8059"
       d="M -24.50339,37.891026 C 5.64335,36.606989 6.83499,36.368099 6.38482,31.698867 6.10045,28.749409 5.79345,28.47391 3.07141,28.725453 c -1.65,0.152477 -4.89146,0.248364 -7.20324,0.213083 -2.31178,-0.03528 -7.93678,0.918355 -12.5,2.119192 -9.67288,2.545474 -17.62475,3.579995 -34.57178,4.497717 -6.75126,0.365597 -12.51532,1.053534 -12.80902,1.52875 -0.29369,0.475215 -4.55744,0.864028 -9.47498,0.864028 -6.0908,0 -8.94098,0.367966 -8.94098,1.154306 0,1.211242 2.05082,1.16835 57.9252,-1.211503 z"
       style="fill:#768686;fill-opacity:1" />
    <path
       id="path8057"
       d="m -50.42859,28.951558 c 20.44215,-3.37049 23.31135,-3.929536 36,-7.014384 12.99458,-3.159226 17.19888,-3.8245 32.25266,-5.103556 11.10824,-0.943821 14.80829,-1.601853 15.2332,-2.709134 0.30867,-0.804384 0.28862,-1.73561 -0.0446,-2.069389 -2.03433,-2.037996 -59.58686,0.192352 -73.4413,2.84609 -2.475,0.474071 -7.16173,1.342082 -10.41495,1.928913 -8.62015,1.554941 -15.32182,3.989766 -16.02496,5.822127 -0.33795,0.880684 -0.12155,3.094751 0.48088,4.920149 1.2122,3.672988 1.75993,3.720323 15.95903,1.379184 z"
       style="fill:#8ea696;fill-opacity:1" />
    <path
       id="path7990"
       d="m -74.92859,11.348928 c 10.45,-0.281143 22.29506,-0.936314 26.32236,-1.455937 4.0273,-0.519622 9.96765,-0.944768 13.20078,-0.944768 3.23313,0 8.03807,-0.423045 10.67764,-0.9401 2.63957,-0.517055 7.38672,-1.224436 10.54922,-1.571957 l 5.75,-0.631856 V 1.935284 c 0,-2.127965 -0.50733,-4.182576 -1.12741,-4.565803 -3.48446,-2.153515 -33.90435,-0.288578 -74.87259,4.590177 -20.4007,2.429444 -19.46444,2.178052 -19.82457,5.323038 -0.58957,5.148654 0.32633,6.008955 5.59431,5.254682 2.60164,-0.372505 13.28026,-0.907308 23.73026,-1.18845 z"
       style="fill:#a5a5a5;fill-opacity:1" />
  </g>
</svg>
