<?xml version="1.0" encoding="UTF-8" standalone="no"?>
<!-- Created with Inkscape (http://www.inkscape.org/) -->

<svg
   xmlns:dc="http://purl.org/dc/elements/1.1/"
   xmlns:cc="http://creativecommons.org/ns#"
   xmlns:rdf="http://www.w3.org/1999/02/22-rdf-syntax-ns#"
   xmlns:svg="http://www.w3.org/2000/svg"
   xmlns="http://www.w3.org/2000/svg"
   xmlns:xlink="http://www.w3.org/1999/xlink"
   xmlns:sodipodi="http://sodipodi.sourceforge.net/DTD/sodipodi-0.dtd"
   xmlns:inkscape="http://www.inkscape.org/namespaces/inkscape"
   width="181.68411mm"
   height="157.72502mm"
   viewBox="0 0 643.7626 558.86818"
   id="svg2"
   version="1.1"
   inkscape:version="0.91 r13725"
   sodipodi:docname="yawn.svg"
   inkscape:export-filename="/home/algot/Documents/runeman.org/clipart/2018/yawn.png"
   inkscape:export-xdpi="48.931084"
   inkscape:export-ydpi="48.931084">
  <title
     id="title4361">Yawn</title>
  <defs
     id="defs4">
    <linearGradient
       inkscape:collect="always"
       id="linearGradient4193">
      <stop
         style="stop-color:#ef309d;stop-opacity:1"
         offset="0"
         id="stop4195" />
      <stop
         style="stop-color:#5e3b26;stop-opacity:0"
         offset="1"
         id="stop4197" />
    </linearGradient>
    <filter
       inkscape:collect="always"
       style="color-interpolation-filters:sRGB"
       id="filter4163"
       x="-0.055285718"
       width="1.1105714"
       y="-0.026689654"
       height="1.0533793">
      <feGaussianBlur
         inkscape:collect="always"
         stdDeviation="1.2547112"
         id="feGaussianBlur4165" />
    </filter>
    <radialGradient
       inkscape:collect="always"
       xlink:href="#linearGradient4193"
       id="radialGradient4199"
       cx="372.20197"
       cy="697.70746"
       fx="372.20197"
       fy="697.70746"
       r="112.04382"
       gradientTransform="matrix(1.8217945,0.2529542,-0.11079069,0.95274079,-228.57405,-65.064167)"
       gradientUnits="userSpaceOnUse" />
    <filter
       inkscape:collect="always"
       style="color-interpolation-filters:sRGB"
       id="filter4237"
       x="-0.14742859"
       width="1.2948571"
       y="-0.071172409"
       height="1.1423448">
      <feGaussianBlur
         inkscape:collect="always"
         stdDeviation="3.3458966"
         id="feGaussianBlur4239" />
    </filter>
    <filter
       inkscape:collect="always"
       style="color-interpolation-filters:sRGB"
       id="filter4269"
       x="-0.18884142"
       width="1.3776828"
       y="-0.044479378"
       height="1.0889589">
      <feGaussianBlur
         inkscape:collect="always"
         stdDeviation="0.92623632"
         id="feGaussianBlur4271" />
    </filter>
    <filter
       inkscape:collect="always"
       style="color-interpolation-filters:sRGB"
       id="filter4456"
       x="-0.13616467"
       width="1.2723293"
       y="-0.091597231"
       height="1.1831945">
      <feGaussianBlur
         inkscape:collect="always"
         stdDeviation="4.8480334"
         id="feGaussianBlur4458" />
    </filter>
  </defs>
  <sodipodi:namedview
     id="base"
     pagecolor="#ffffff"
     bordercolor="#666666"
     borderopacity="1.0"
     inkscape:pageopacity="0.0"
     inkscape:pageshadow="2"
     inkscape:zoom="0.84940797"
     inkscape:cx="141.80219"
     inkscape:cy="211.45609"
     inkscape:document-units="px"
     inkscape:current-layer="layer1"
     showgrid="false"
     inkscape:window-width="1366"
     inkscape:window-height="712"
     inkscape:window-x="0"
     inkscape:window-y="0"
     inkscape:window-maximized="1"
     fit-margin-top="0"
     fit-margin-left="0"
     fit-margin-right="0"
     fit-margin-bottom="0" />
  <metadata
     id="metadata7">
    <rdf:RDF>
      <cc:Work
         rdf:about="">
        <dc:format>image/svg+xml</dc:format>
        <dc:type
           rdf:resource="http://purl.org/dc/dcmitype/StillImage" />
        <dc:title>Yawn</dc:title>
        <dc:date>2018-05-04</dc:date>
        <dc:creator>
          <cc:Agent>
            <dc:title>Algot Runeman</dc:title>
          </cc:Agent>
        </dc:creator>
        <dc:rights>
          <cc:Agent>
            <dc:title>Algot Runeman</dc:title>
          </cc:Agent>
        </dc:rights>
        <dc:publisher>
          <cc:Agent>
            <dc:title>runeman.org</dc:title>
          </cc:Agent>
        </dc:publisher>
        <dc:identifier>yawn.svg</dc:identifier>
        <cc:license
           rdf:resource="http://creativecommons.org/publicdomain/zero/1.0/" />
      </cc:Work>
      <cc:License
         rdf:about="http://creativecommons.org/publicdomain/zero/1.0/">
        <cc:permits
           rdf:resource="http://creativecommons.org/ns#Reproduction" />
        <cc:permits
           rdf:resource="http://creativecommons.org/ns#Distribution" />
        <cc:permits
           rdf:resource="http://creativecommons.org/ns#DerivativeWorks" />
      </cc:License>
    </rdf:RDF>
  </metadata>
  <g
     inkscape:label="Layer 1"
     inkscape:groupmode="layer"
     id="layer1"
     transform="translate(-48.760206,-248.88765)">
    <path
       style="fill:#e4bab5;fill-opacity:1;fill-rule:evenodd;stroke:#000000;stroke-width:1px;stroke-linecap:butt;stroke-linejoin:miter;stroke-opacity:1"
       d="m 49.280648,805.95896 1.29686,-32.42148 2.593718,-6.48429 0,-19.45289 2.593718,-29.82776 9.078014,-24.64033 10.374874,-10.37487 16.859169,-9.07801 10.374869,-6.4843 14.26546,-16.85917 14.26545,1.29686 31.12462,-11.67173 16.85917,0 24.64032,-10.37487 24.64032,-9.07802 10.37488,-9.07801 16.85917,-2.59372 9.07801,-5.18744 18.15603,-5.18743 -5.18744,-29.82777 -9.07801,-16.85916 -9.07802,-35.0152 c 0,0 -10.09592,1.02981 -14.26545,-1.29686 -3.77491,-2.10646 -5.65128,-6.61312 -7.78115,-10.37487 -6.20958,-10.96731 -14.26545,-35.0152 -14.26545,-35.0152 l 0,-12.96859 c 0,0 1.16774,-13.3126 5.18743,-18.15603 1.23464,-1.48765 3.25534,-2.52718 5.18744,-2.59372 5.61639,-0.19344 15.56231,6.4843 15.56231,6.4843 l -2.59372,-53.17123 3.89058,-35.0152 3.89058,-23.34346 11.67173,-23.34347 16.85917,-20.74975 14.26545,-11.67173 20.74975,-10.37487 18.15602,-3.89058 14.26546,-7.78115 15.56231,-2.59372 9.07801,3.89058 38.90577,5.18743 33.71834,22.04661 19.45289,19.45289 15.56231,33.71833 6.4843,32.42148 0,23.34347 -11.67174,53.17122 -1.29685,15.56231 9.07801,-10.37487 7.78115,-3.89058 c 13.58806,3.70451 4.65079,16.79459 5.18744,25.93719 l -3.05223,22.34778 -3.43206,8.77684 -5.18744,15.56231 -5.18744,6.48429 -12.96859,0 -19.45289,49.28065 -5.18743,19.45289 3.89057,14.26545 14.26545,6.4843 10.37488,-2.59372 29.82776,15.56231 18.15603,5.18743 41.49949,22.04661 47.98379,24.64032 6.4843,-5.18743 28.5309,11.67173 0,9.07801 27.23404,45.39007 19.45289,47.98379 0,16.85917 z"
       id="path3347"
       inkscape:connector-curvature="0"
       sodipodi:nodetypes="ccccccccccccccccccccccssccsscccccccccccccccccccccccccccccccccccccccccccc" />
    <path
       style="fill:#bb8b8d;fill-opacity:1;fill-rule:evenodd;stroke:none;stroke-width:1px;stroke-linecap:butt;stroke-linejoin:miter;stroke-opacity:1"
       d="m 390.35461,585.4929 c 4.86562,-1.8499 9.37139,-5.70531 11.67173,-10.37487 2.68128,-5.44283 2.05465,-12.13611 1.29686,-18.15603 -0.68293,-5.42522 -1.43619,-11.58392 -5.18744,-15.56231 -4.7911,-5.08121 -12.71941,-5.92809 -19.45288,-7.78115 -8.01714,-2.20633 -16.35061,-3.24016 -24.64033,-3.89058 -5.6025,-0.43958 -11.54362,-1.8238 -16.85917,0 -4.66204,1.59958 -9.3601,4.72489 -11.67173,9.07801 -3.0479,5.73962 -4.6493,13.88565 -1.29686,19.45289 11.47967,19.06375 39.18842,22.59298 60.95238,27.23404 1.69112,0.36062 3.57117,0.61451 5.18744,0 z"
       id="path4189"
       inkscape:connector-curvature="0"
       sodipodi:nodetypes="sssssssssss" />
    <path
       style="fill:#b3b3b3;fill-rule:evenodd;stroke:none;stroke-width:1px;stroke-linecap:butt;stroke-linejoin:miter;stroke-opacity:1"
       d="m 464.27558,615.47159 c 0,0 17.48607,18.33258 19.45289,30.17492 1.47663,8.89092 -3.74241,17.66084 -6.4843,26.23905 -5.01364,15.68555 -18.15602,45.91835 -18.15602,45.91835 l -47.98379,56.41395 -62.24924,26.23906 -77.81155,-135.13112 -10.37488,-39.35858 5.18744,-23.61515 -15.56231,7.87172 -11.67173,-1.31195 -15.56231,13.11952 -46.68693,19.67929 -12.96859,-2.6239 -33.71834,11.80757 -14.26545,-1.31196 -19.452891,26.23906 -31.124621,11.80758 -11.671732,26.23904 -2.593718,93.14864 641.945292,0 -1.29686,-10.49562 -25.93719,-70.84544 c 0,0 -15.0133,-18.83711 -18.15602,-30.17491 -1.05046,-3.78968 2.21605,-0.47949 0,-3.71447 -6.31132,-9.21323 -20.41281,-14.67457 -31.12462,-11.80757 -3.26396,0.87359 -3.39787,1.16315 -6.4843,-0.2214 -25.21355,-11.31062 -62.37219,-32.12172 -93.37386,-48.54224 -13.02099,-6.89678 -24.23005,-20.17794 -38.90578,-20.99124 -4.6489,-0.25763 -12.96859,5.2478 -12.96859,5.2478 z"
       id="path4207"
       inkscape:connector-curvature="0"
       sodipodi:nodetypes="cssccccccccccccccccccccssssssc" />
    <path
       transform="matrix(1.1050055,0,0,0.99322106,93.209654,-34.132345)"
       style="fill:#cccccc;fill-rule:evenodd;stroke:none;stroke-width:1px;stroke-linecap:butt;stroke-linejoin:miter;stroke-opacity:1;filter:url(#filter4237)"
       d="m 132.27964,647.74215 32.42148,64.84296 22.0466,47.98379 c 0,0 -21.11806,-23.72891 -28.5309,-37.60892 -12.494,-23.39411 -25.93718,-75.21783 -25.93718,-75.21783 z"
       id="path4241"
       inkscape:connector-curvature="0"
       sodipodi:nodetypes="cccsc" />
    <path
       style="fill:#4d4d4d;fill-rule:evenodd;stroke:none;stroke-width:1px;stroke-linecap:butt;stroke-linejoin:miter;stroke-opacity:1;filter:url(#filter4163)"
       d="m 115.42047,656.82016 32.42148,64.84296 22.0466,47.98379 c 0,0 -21.11806,-23.72891 -28.5309,-37.60892 -12.494,-23.39411 -25.93718,-75.21783 -25.93718,-75.21783 z"
       id="path3349"
       inkscape:connector-curvature="0"
       sodipodi:nodetypes="cccsc" />
    <path
       style="fill:#000000;fill-rule:evenodd;stroke:none;stroke-width:1px;stroke-linecap:butt;stroke-linejoin:miter;stroke-opacity:1"
       d="m 326.80851,558.25886 c -2.42937,-6.11983 2.76829,-13.88691 7.78116,-18.15603 4.07087,-3.46689 10.21599,-3.79998 15.56231,-3.89057 6.18851,-0.10486 12.11438,2.54623 18.15602,3.89057 5.62973,1.25269 11.56379,1.60539 16.85917,3.89058 2.86213,1.23514 5.83323,2.75374 7.78116,5.18744 3.76246,4.70074 6.48429,16.85917 6.48429,16.85917 l -5.18743,9.07801 -7.78116,9.07801 c 0,0 -51.65525,-5.78366 -59.65552,-25.93718 z"
       id="path4191"
       inkscape:connector-curvature="0"
       sodipodi:nodetypes="sssssscccs" />
    <path
       style="fill:#f2f2f2;fill-rule:evenodd;stroke:#000000;stroke-width:1px;stroke-linecap:butt;stroke-linejoin:miter;stroke-opacity:1"
       d="m 339.87488,537.27967 0.11401,7.8073 14.30997,0.78735 -0.57128,-7.77369 1.90951,7.21559 12.58168,2.2936 1.35863,-6.53628 -0.47768,6.01179 9.41434,2.98611 3.22135,-6.21342 -1.84952,6.1126 9.90524,3.40978 0.44409,-6.46907 -10.39612,-3.83345 -9.90524,-3.40977 -16.20628,-1.56748 z"
       id="path4273"
       inkscape:connector-curvature="0"
       sodipodi:nodetypes="ccccccccccccccccc" />
    <path
       style="fill:url(#radialGradient4199);fill-opacity:1;fill-rule:evenodd;stroke:none;stroke-width:1px;stroke-linecap:butt;stroke-linejoin:miter;stroke-opacity:1"
       d="m 473.3536,600.96075 10.37487,34.01034 -9.07801,46.76423 -25.93719,46.76422 -44.09321,53.84972 -49.28065,18.42227 -82.99898,-141.70978 -11.67174,-42.51293 3.89058,-29.75906 z"
       id="path4169"
       inkscape:connector-curvature="0" />
    <path
       style="fill:#808080;fill-rule:evenodd;stroke:none;stroke-width:1px;stroke-linecap:butt;stroke-linejoin:miter;stroke-opacity:1;filter:url(#filter4456)"
       d="m 399.48272,685.9167 4.47427,69.96006 -47.828,57.06649 -37.62207,-2.59372 z"
       id="path4382"
       inkscape:connector-curvature="0"
       transform="matrix(0.98151616,0,0,0.93339207,5.4514127,45.175985)"
       sodipodi:nodetypes="ccccc" />
    <path
       style="fill:#e9c2bb;fill-opacity:1;fill-rule:evenodd;stroke:#000000;stroke-width:1px;stroke-linecap:butt;stroke-linejoin:miter;stroke-opacity:1"
       d="m 223.05978,807.25582 1.29686,-16.85917 -15.56231,-47.98379 -5.18744,-27.23404 -6.4843,-23.34346 -7.78115,-37.60892 -11.67173,-15.56231 1.29686,-12.96859 12.96859,-1.29686 16.85917,11.67173 10.37487,23.34347 10.37487,24.64032 7.78116,-1.29686 14.26545,0 16.85917,-12.96859 16.16465,-40.81848 17.86836,-31.34712 19.13821,-34.17685 12.9686,-10.37488 7.78115,-1.29685 c 0,0 10.66147,5.40082 8.99934,8.55433 -8.32792,15.8003 -27.15537,49.80433 -27.15537,49.80433 l 32.42148,-54.46809 c 0,0 6.26209,-10.66728 11.67173,-11.67173 4.18598,-0.77724 11.67174,5.18744 11.67174,5.18744 l 3.89057,11.67173 -19.45288,40.20263 14.88129,-28.5309 c 0,0 5.13358,-1.25567 7.16531,0 4.11129,2.54092 6.4843,12.96859 6.4843,12.96859 l -7.78116,33.71834 -3.89057,16.85917 c 0,0 2.373,-10.42767 6.48429,-12.96859 2.57407,-1.59087 6.67323,-1.83677 9.07802,0 3.91697,2.99176 3.89057,14.26545 3.89057,14.26545 l -2.59372,23.34347 -5.18743,25.93718 -11.67173,27.23404 -5.18744,31.12462 -31.12462,62.24924 z"
       id="path4167"
       inkscape:connector-curvature="0"
       sodipodi:nodetypes="ccccccccccccccccccccsccsccccscccssccccccc" />
    <path
       style="fill:#b1554e;fill-opacity:1;fill-rule:evenodd;stroke:none;stroke-width:1px;stroke-linecap:butt;stroke-linejoin:miter;stroke-opacity:1"
       d="m 250.29382,475.25987 c 2.50406,-0.80246 2.09932,-5.27709 1.29686,-7.78115 -1.49255,-4.65745 -7.80364,-6.21454 -10.37487,-10.37487 -1.43736,-2.3257 -0.80238,-5.71573 -2.59372,-7.78116 -1.9,-2.19072 -5.0301,-4.8076 -7.78116,-3.89058 -3.66807,1.22269 -7.22016,7.08585 -5.18743,10.37488 1.3636,2.20635 5.94712,-1.83403 7.78115,0 2.13971,2.13971 -2.13971,6.9383 0,9.07801 1.52836,1.52836 4.4874,-0.82714 6.4843,0 4.51847,1.87161 5.71742,11.86742 10.37487,10.37487 z"
       id="path4171"
       inkscape:connector-curvature="0"
       sodipodi:nodetypes="ssssssssss" />
    <path
       style="fill:#3f3935;fill-opacity:1;fill-rule:evenodd;stroke:none;stroke-width:1px;stroke-linecap:butt;stroke-linejoin:miter;stroke-opacity:1"
       d="m 344.96454,431.16666 c 0,0 7.26,-4.49521 6.48429,-7.78115 -1.73453,-7.3476 -13.50367,-6.95898 -20.74974,-9.07802 -7.98093,-2.33394 -16.36758,-4.72968 -24.64033,-3.89057 -7.3492,0.74543 -15.40735,2.67965 -20.74974,7.78115 -2.38099,2.27364 -3.89058,9.07802 -3.89058,9.07802 l 24.64032,0 22.04661,0 z"
       id="path4173"
       inkscape:connector-curvature="0"
       sodipodi:nodetypes="csssscccc" />
    <path
       style="fill:#2c2622;fill-opacity:1;fill-rule:evenodd;stroke:#000000;stroke-width:1px;stroke-linecap:butt;stroke-linejoin:miter;stroke-opacity:1"
       d="m 255.48126,458.40071 5.18743,-29.82777 2.59372,-22.0466 c 0,0 10.73577,-14.72674 12.96859,-23.34347 3.36149,-12.97243 -2.80059,-25.71531 3.66807,-37.45158 4.6892,-8.50773 20.97226,-18.31336 20.97226,-18.31336 3.30784,9.01114 -5.74326,12.52943 -12.96859,16.85917 7.23256,0.0962 14.95965,3.15974 21.06442,-3.51074 2.61819,3.33168 -5.25731,6.66335 -10.68955,9.99503 11.60581,-3.48466 28.19676,-4.97526 28.5309,-12.96859 5.4716,4.32286 -5.84101,8.64573 -12.96859,12.96859 16.95093,-1.38139 30.15552,-4.12508 33.71834,-10.37487 3.9509,8.19222 -8.35202,9.16052 -14.26545,12.96859 18.14292,1.53789 30.65424,-4.80848 42.79635,-11.67173 l 38.90577,-3.89058 c 0,0 14.87557,-11.26973 23.34347,-10.37487 5.84717,0.61791 14.26545,10.37487 14.26545,10.37487 l 11.67173,31.12462 c 0,0 -6.97563,21.62393 -5.18743,32.42148 1.35859,8.20346 9.54892,14.00695 11.67173,22.04661 3.75386,14.21685 1.29686,44.09321 1.29686,44.09321 l 6.48429,-27.23404 9.07802,-45.39007 0,-45.39007 c 0,0 -12.31656,-38.01483 -24.64033,-53.17123 -13.25426,-16.30077 -31.35397,-29.1327 -50.5775,-37.60892 -12.48938,-5.50693 -26.68837,-5.86398 -40.20264,-7.78115 -4.72743,-0.67064 -9.5495,-2.04397 -14.26545,-1.29686 -13.00658,2.06052 -24.0817,10.6802 -36.31206,15.56231 -11.55959,4.61435 -24.96338,5.62846 -35.01519,12.96859 -10.19628,7.44563 -17.61239,18.57804 -23.34347,29.82776 -8.57139,16.82505 -15.56231,54.46809 -15.56231,54.46809 l -1.29686,63.5461 2.59372,23.34346 z"
       id="path4175"
       inkscape:connector-curvature="0"
       sodipodi:nodetypes="cccssccccccccccsccssccccssssssscccc" />
    <path
       style="fill:#2c2622;fill-opacity:1;fill-rule:evenodd;stroke:#000000;stroke-width:1px;stroke-linecap:butt;stroke-linejoin:miter;stroke-opacity:1"
       d="m 387.76089,433.76038 23.34347,-2.59372 18.15603,0 23.34346,9.07802 c 0,0 -2.33682,-12.49437 -6.4843,-16.85917 -5.86542,-6.17276 -14.9289,-9.07056 -23.34346,-10.37488 -3.86832,-0.59962 -7.82652,0.56351 -11.67173,1.29686 -4.84156,0.92337 -10.35512,0.89015 -14.26545,3.89058 -4.76454,3.65587 -9.07802,15.56231 -9.07802,15.56231 z"
       id="path4177"
       inkscape:connector-curvature="0"
       sodipodi:nodetypes="ccccssssc" />
    <path
       style="fill:#5f4c45;fill-opacity:1;fill-rule:evenodd;stroke:none;stroke-width:1px;stroke-linecap:butt;stroke-linejoin:miter;stroke-opacity:1"
       d="m 289.19959,440.24468 c 0,0 14.7335,0.72414 22.04661,0 6.58053,-0.6516 12.87236,-3.23898 19.45289,-3.89058 4.30183,-0.42596 12.96859,0 12.96859,0 0,0 -9.61741,3.18817 -14.26545,5.18744 -3.55185,1.52776 -6.7714,3.78574 -10.37487,5.18743 -2.93301,1.14089 -5.96134,2.15721 -9.07802,2.59372 -3.42486,0.47967 -7.13755,1.21637 -10.37487,0 -4.30164,-1.61628 -10.37488,-9.07801 -10.37488,-9.07801 z"
       id="path4179"
       inkscape:connector-curvature="0"
       sodipodi:nodetypes="csscssssc" />
    <path
       inkscape:connector-curvature="0"
       id="path4181"
       d="m 443.66768,444.24468 c 0,0 -14.7335,0.72414 -22.04661,0 -6.58053,-0.6516 -12.87236,-3.23898 -19.45289,-3.89058 -4.30183,-0.42596 -12.96859,0 -12.96859,0 0,0 9.61741,3.18817 14.26545,5.18744 3.55185,1.52776 6.7714,3.78574 10.37487,5.18743 2.93301,1.14089 5.96134,2.15721 9.07802,2.59372 3.42486,0.47967 7.13755,1.21637 10.37487,0 4.30164,-1.61628 10.37488,-9.07801 10.37488,-9.07801 z"
       style="fill:#5f4c45;fill-opacity:1;fill-rule:evenodd;stroke:none;stroke-width:1px;stroke-linecap:butt;stroke-linejoin:miter;stroke-opacity:1"
       sodipodi:nodetypes="csscssssc" />
    <path
       style="fill:#bb574f;fill-opacity:1;fill-rule:evenodd;stroke:none;stroke-width:1px;stroke-linecap:butt;stroke-linejoin:miter;stroke-opacity:1"
       d="m 473.3536,477.85359 c -4.33097,-8.85527 8.29862,-23.27595 18.15603,-23.34346 2.76792,-0.019 4.70143,3.75931 5.18743,6.48429 0.96008,5.38309 0.23223,14.83652 -5.18743,15.56231 -4.63452,0.62065 -3.3059,-13.02673 -7.78116,-11.67173 -4.13738,1.2527 3.05673,9.91186 0,12.96859 -2.44538,2.44538 -8.85547,3.10663 -10.37487,0 z"
       id="path4183"
       inkscape:connector-curvature="0"
       sodipodi:nodetypes="sssssss" />
    <path
       style="fill:none;fill-rule:evenodd;stroke:#000000;stroke-width:1px;stroke-linecap:butt;stroke-linejoin:miter;stroke-opacity:1"
       d="m 348.85512,432.46352 c 0,0 13.11662,-11.61355 20.74974,-10.37487 6.03451,0.97927 12.96859,12.96859 12.96859,12.96859"
       id="path4185"
       inkscape:connector-curvature="0"
       sodipodi:nodetypes="csc" />
    <path
       style="fill:#2c2622;fill-opacity:1;fill-rule:evenodd;stroke:none;stroke-width:1px;stroke-linecap:butt;stroke-linejoin:miter;stroke-opacity:1"
       d="m 391.65147,481.74417 3.5759,17.69752 -8.76334,-2.13521 -10.37487,2.59372 -2.8949,12.11675 c 0,0 -5.5752,5.64114 -8.77683,4.74242 -5.78203,-1.62306 -9.07802,-15.56231 -9.07802,-15.56231 0,0 -4.83646,-8.51 -9.07801,-9.07802 -3.45437,-0.4626 -9.07802,5.18744 -9.07802,5.18744 5.98947,3.32032 14.06683,4.03079 15.56231,12.96859 l 11.67174,10.53221 c 0,0 12.16534,-12.40426 19.45288,-14.42279 4.16601,-1.15392 10.1872,3.30923 12.9686,0 4.00133,-4.76067 -3.20956,-18.37853 -3.20956,-18.37853 z"
       id="path4187"
       inkscape:connector-curvature="0"
       sodipodi:nodetypes="cccccscscccsscc" />
    <path
       style="fill:#782121;fill-rule:evenodd;stroke:#000000;stroke-width:1px;stroke-linecap:butt;stroke-linejoin:miter;stroke-opacity:1"
       d="m 322.91793,614.02381 -14.26545,40.20263 -7.78115,5.18744 z"
       id="path4201"
       inkscape:connector-curvature="0" />
    <path
       style="fill:#782121;fill-rule:evenodd;stroke:none;stroke-width:1px;stroke-linecap:butt;stroke-linejoin:miter;stroke-opacity:1"
       d="m 364.41743,602.35207 -11.67174,28.5309 -6.48429,36.31206 -3.89058,-9.07801 7.78116,-33.71834 z"
       id="path4203"
       inkscape:connector-curvature="0" />
    <path
       style="fill:#782121;fill-rule:evenodd;stroke:none;stroke-width:1px;stroke-linecap:butt;stroke-linejoin:miter;stroke-opacity:1"
       d="m 379.97974,636.07041 -14.26545,38.90578 2.59371,9.07801 z"
       id="path4205"
       inkscape:connector-curvature="0" />
    <path
       sodipodi:nodetypes="cccsc"
       inkscape:connector-curvature="0"
       id="path4209"
       d="m 557.64945,689.24164 32.42148,64.84296 22.0466,47.98379 c 0,0 -21.11806,-23.72891 -28.5309,-37.60892 -12.494,-23.39411 -25.93718,-75.21783 -25.93718,-75.21783 z"
       style="fill:#4d4d4d;fill-rule:evenodd;stroke:none;stroke-width:1px;stroke-linecap:butt;stroke-linejoin:miter;stroke-opacity:1;filter:url(#filter4163)"
       transform="matrix(0.46423821,0.73984096,-0.46423821,0.73984095,672.06689,-248.73186)" />
    <path
       sodipodi:nodetypes="cccsc"
       inkscape:connector-curvature="0"
       id="path4211"
       d="m 132.27964,647.74215 32.42148,64.84296 22.0466,47.98379 c 0,0 -21.11806,-23.72891 -28.5309,-37.60892 -12.494,-23.39411 -25.93718,-75.21783 -25.93718,-75.21783 z"
       style="fill:#cccccc;fill-rule:evenodd;stroke:none;stroke-width:1px;stroke-linecap:butt;stroke-linejoin:miter;stroke-opacity:1;filter:url(#filter4237)"
       transform="matrix(1.1050055,0,0,0.99322106,-23.507671,4.77343)" />
    <path
       style="fill:#bb574f;fill-opacity:1;fill-rule:evenodd;stroke:none;stroke-width:1px;stroke-linecap:butt;stroke-linejoin:miter;stroke-opacity:1;filter:url(#filter4269)"
       d="m 392.02516,484.72812 c 0,0 -8.13556,-15.08767 -9.62869,-23.38396 -1.5711,-8.72952 0.91702,-26.59352 0.91702,-26.59352 0,0 -1.81369,9.43857 -2.29255,14.21378 -0.38155,3.80488 -1.21966,7.71528 -0.45851,11.46272 1.78272,8.77705 11.46273,24.30098 11.46273,24.30098 z"
       id="path4243"
       inkscape:connector-curvature="0"
       sodipodi:nodetypes="cscssc" />
  </g>
</svg>
